<?xml version="1.0" encoding="UTF-8" standalone="no"?>
<svg
   xmlns:dc="http://purl.org/dc/elements/1.1/"
   xmlns:cc="http://creativecommons.org/ns#"
   xmlns:rdf="http://www.w3.org/1999/02/22-rdf-syntax-ns#"
   xmlns:svg="http://www.w3.org/2000/svg"
   xmlns="http://www.w3.org/2000/svg"
   xmlns:sodipodi="http://sodipodi.sourceforge.net/DTD/sodipodi-0.dtd"
   xmlns:inkscape="http://www.inkscape.org/namespaces/inkscape"
   width="210mm"
   height="297mm"
   viewBox="0 0 210 297"
   version="1.1"
   id="svg8"
   inkscape:version="1.0.1 (3bc2e813f5, 2020-09-07)"
   sodipodi:docname="goldzi.svg">
  <defs
     id="defs2" />
  <sodipodi:namedview
     id="base"
     pagecolor="#ffffff"
     bordercolor="#666666"
     borderopacity="1.0"
     inkscape:pageopacity="0.0"
     inkscape:pageshadow="2"
     inkscape:zoom="0.35"
     inkscape:cx="-408.99217"
     inkscape:cy="70.186658"
     inkscape:document-units="mm"
     inkscape:current-layer="layer1"
     inkscape:document-rotation="0"
     showgrid="false"
     inkscape:window-width="1920"
     inkscape:window-height="1001"
     inkscape:window-x="-9"
     inkscape:window-y="-9"
     inkscape:window-maximized="1" />
  <metadata
     id="metadata5">
    <rdf:RDF>
      <cc:Work
         rdf:about="">
        <dc:format>image/svg+xml</dc:format>
        <dc:type
           rdf:resource="http://purl.org/dc/dcmitype/StillImage" />
        <dc:title></dc:title>
      </cc:Work>
    </rdf:RDF>
  </metadata>
  <g
     inkscape:label="Layer 1"
     inkscape:groupmode="layer"
     id="layer1">
    <g
       id="g6123"
       transform="matrix(3.9766554,0,0,3.3978017,-2242.8223,-218.56969)">
      <path
         class="cls-20"
         d="m 594.9194,91.171578 a 11.849999,11.849999 0 0 0 1.21,-1.24 2.2599999,2.2599999 0 0 0 0.55,-1 3.8099999,3.8099999 0 0 0 0.13,-1.13 1.75,1.75 0 0 0 -0.31,-0.93 2.11,2.11 0 0 0 -0.91,-0.74 4.1099999,4.1099999 0 0 0 -3.63,0.22 18.52,18.52 0 0 0 -2.14,1.67 c -0.82,0.63 -1.8,1.31 -2.8,2 l -2.86,1.86 c -0.85,0.56 -1.54,1 -2.78,1.77 -1.24,0.77 -3.06,1.77 -5,2.83 -1.94,1.06 -4,2.18 -5.35,3 a 8.4099997,8.4099997 0 0 0 -2.43,2.000002 2.6599999,2.6599999 0 0 0 -0.55,1.62 2.77,2.77 0 0 0 0.45,1.54 3.5699999,3.5699999 0 0 0 1.17,1 3.6699999,3.6699999 0 0 0 1.49,0.55 9.9999998,9.9999998 0 0 0 2.31,-0.1 14.109999,14.109999 0 0 0 3.29,-0.83 44.149999,44.149999 0 0 0 4.65,-2.15 c 1.37,-0.73 2.26,-1.3 3.15,-1.88 0.89,-0.58 1.79,-1.2 2.57,-1.790002 0.78,-0.59 1.46,-1.18 2,-1.61 a 4.8199999,4.8199999 0 0 1 1.5,-0.84 4.2299999,4.2299999 0 0 1 1.27,-0.15 c 0.3,0 0.42,0 0.51,0.19 a 1.76,1.76 0 0 1 0.22,0.81 4.8999999,4.8999999 0 0 1 -0.18,1.67 15.34,15.34 0 0 1 -1.1,2.860002 24.08,24.08 0 0 1 -1.69,2.85 17.159999,17.159999 0 0 1 -1.68,2.2 19.649999,19.649999 0 0 1 -1.88,1.76 4.2099999,4.2099999 0 0 1 -1.25,0.81 0.58999998,0.58999998 0 0 1 -0.63,-0.17 0.53999999,0.53999999 0 0 1 -0.11,-0.57 3.7999999,3.7999999 0 0 1 0.7,-1 c 0.38,-0.43 0.93,-1 1.45,-1.55 0.52,-0.55 1,-1.06 1.5,-1.55 a 10.48,10.48 0 0 0 1.32,-1.39 3.3399999,3.3399999 0 0 0 0.55,-1.42 2.9999999,2.9999999 0 0 0 0,-1.39 1.43,1.43 0 0 0 -0.75,-0.86 1.36,1.36 0 0 0 -1.18,0 6.2299998,6.2299998 0 0 0 -1.68,1.14 c -0.6,0.54 -1.21,1.2 -1.8,1.71 a 14.08,14.08 0 0 1 -1.66,1.18 c -0.51,0.34 -1,0.66 -1.67,1.06 -0.67,0.4 -1.64,0.87 -2.75,1.36 -1.11,0.49 -2.39,1 -3.81,1.49 -1.42,0.49 -3,1 -4.36,1.4 a 24.259999,24.259999 0 0 0 -3.23,1.13 c -0.71,0.36 -1,0.73 -1,1.13 a 1.5199999,1.5199999 0 0 0 0.5,1.28 5.7799999,5.7799999 0 0 0 1.83,1.24 6.9999998,6.9999998 0 0 0 2,0.46 8.6599998,8.6599998 0 0 0 1.84,0 14.209999,14.209999 0 0 0 2.44,-0.48 27.349999,27.349999 0 0 0 3,-1 c 1,-0.41 1.93,-0.85 2.57,-1 a 2.11,2.11 0 0 1 1.29,-0.11 1.69,1.69 0 0 1 0.71,0.39 0.63999999,0.63999999 0 0 1 0.31,0.71 4.5699999,4.5699999 0 0 1 -1.1,1.32 c -0.59,0.57 -1.34,1.25 -1.85,1.78 a 2.5699999,2.5699999 0 0 0 -0.85,1.28 1.32,1.32 0 0 0 0.35,1.15 2,2 0 0 0 1.2,0.31 4.6499999,4.6499999 0 0 0 1.63,-0.09 8.7599998,8.7599998 0 0 0 2.29,-1.05 32.999999,32.999999 0 0 0 3,-2.12 31.799999,31.799999 0 0 0 2.74,-2.35 c 0.85,-0.82 1.67,-1.73 2.44,-2.62 0.77,-0.89 1.5,-1.77 2.22,-2.76 0.72,-0.99 1.45,-2.07 2.23,-3.21 0.78,-1.14 1.61,-2.32 2.17,-3.09 a 8.3799996,8.3799996 0 0 1 1.11,-1.32 1.46,1.46 0 0 1 0.75,-0.4 1.7,1.7 0 0 1 1,0 1.06,1.06 0 0 1 0.62,0.8 3.2999999,3.2999999 0 0 1 -0.15,1.44 10.84,10.84 0 0 1 -0.77,1.88 c -0.38,0.74 -0.89,1.61 -1.38,2.37 a 18.429999,18.429999 0 0 1 -1.45,2 27.759999,27.759999 0 0 1 -1.94,2 c -0.86,0.84 -2,1.94 -3.32,3.11 -1.32,1.17 -2.75,2.4 -4,3.41 -1.25,1.01 -2.35,1.79 -3.41,2.56 a 34.999999,34.999999 0 0 1 -3.45,2.3 c -1.35,0.77 -3,1.56 -4.27,2.19 a 18.17,18.17 0 0 0 -2.75,1.6 6.4799999,6.4799999 0 0 0 -1.59,1.65 2.8499999,2.8499999 0 0 0 -0.52,1.85 3.5299999,3.5299999 0 0 0 0.8,1.85 2.6499999,2.6499999 0 0 0 1.37,0.88 4.6299999,4.6299999 0 0 0 2.18,0 15.16,15.16 0 0 0 3.21,-1.23 41.119999,41.119999 0 0 0 9.85,-6.31 c 1.65,-1.37 3.35,-2.87 4.77,-4.15 1.42,-1.28 2.56,-2.37 3.51,-3.32 0.95,-0.95 1.7,-1.78 2.26,-2.41 a 9.91,9.91 0 0 1 1.2,-1.3 0.63999999,0.63999999 0 0 1 0.69,-0.12 c 0.13,0.09 0.14,0.26 0.08,0.5 a 4.2499999,4.2499999 0 0 1 -0.53,1.1 21.109999,21.109999 0 0 1 -1.78,2.32 c -0.94,1.11 -2.32,2.64 -3.39,3.83 -1.07,1.19 -1.81,2 -2.77,3 -0.96,1 -2.16,2 -3,2.79 a 6.3299998,6.3299998 0 0 0 -1.4,1.55 1.11,1.11 0 0 0 0.08,1.12 c 0.21,0.3 0.61,0.48 1.35,0.56 a 9.5400001,9.5400001 0 0 0 2.78,-0.11 7.3699998,7.3699998 0 0 0 3.05,-1.42 41.169999,41.169999 0 0 0 4.64,-4 c 1.79,-1.74 3.74,-3.83 5.13,-5.41 a 30.999999,30.999999 0 0 0 3,-3.91 21.849999,21.849999 0 0 0 2.11,-4 7.3599998,7.3599998 0 0 0 0.41,-2.6 c 0,-0.55 0.05,-0.79 -0.22,-1.14 a 4.7499999,4.7499999 0 0 0 -1.3,-1 1.9299999,1.9299999 0 0 0 -1.18,-0.24 2.5199999,2.5199999 0 0 0 -1.18,0.46 10.42,10.42 0 0 0 -1.57,1.4 c -0.61,0.64 -1.29,1.43 -1.7,1.87 -0.41,0.44 -0.56,0.53 -0.61,0.47 -0.05,-0.06 0,-0.24 0.18,-0.67 0.18,-0.43 0.58,-1.08 1,-1.79 0.42,-0.71 0.92,-1.45 1.54,-2.6 a 28.899999,28.899999 0 0 0 1.83,-4.09 12.81,12.81 0 0 0 0.69,-3.880003 17.589999,17.589999 0 0 0 -0.29,-4.11 8.9999996,8.9999996 0 0 0 -1.19,-3.1 2.6099999,2.6099999 0 0 0 -1.38,-1.1 2.3199999,2.3199999 0 0 0 -1.15,-0.09 1.8499999,1.8499999 0 0 0 -0.92,0.37 1.35,1.35 0 0 0 -0.47,1 16.8,16.8 0 0 0 0,2 c 0,0.76 0,1.54 0,2.17 a 4.2799999,4.2799999 0 0 1 -0.24,1.52 3.2199999,3.2199999 0 0 1 -0.72,1 1.48,1.48 0 0 1 -0.82,0.58 0.83999994,0.83999994 0 0 1 -0.76,-0.42 1.14,1.14 0 0 1 0,-1 12.46,12.46 0 0 1 0.71,-1.47 11.56,11.56 0 0 0 0.92,-1.94 3.4399999,3.4399999 0 0 0 0.09,-1.92 2.6199999,2.6199999 0 0 0 -1,-1.4 3.4599999,3.4599999 0 0 0 -1.64,-0.57 5.9199998,5.9199998 0 0 0 -1.84,0 2.6999999,2.6999999 0 0 0 -1.45,0.72 12.49,12.49 0 0 0 -1.4,1.81 23.599999,23.599999 0 0 1 -1.57,2.09 2.6399999,2.6399999 0 0 1 -1.15,0.76 1.8699999,1.8699999 0 0 1 -1,0.179999 0.50999999,0.50999999 0 0 1 -0.4,-0.539999 1.67,1.67 0 0 1 0.4,-1 4.9999999,4.9999999 0 0 1 0.93,-0.92 8.9999996,8.9999996 0 0 0 0.86,-0.61 z m -13.31,4.16 c -1,0.59 -2,1.19 -3.33,1.89 -1.33,0.7 -3,1.49 -4.33,2.17 a 19.569999,19.569999 0 0 0 -2.83,1.690002 2.9999999,2.9999999 0 0 0 -1,1.09 1.1999999,1.1999999 0 0 0 -0.09,1 2.5999999,2.5999999 0 0 0 0.7,0.94 2,2 0 0 0 1,0.49 8.0000001,8.0000001 0 0 0 1.85,0.08 11.229999,11.229999 0 0 0 2.53,-0.4 25.999999,25.999999 0 0 0 2.83,-1 c 0.83,-0.36 1.43,-0.65 2.15,-1 a 21.629999,21.629999 0 0 0 2.52,-1.51 c 1,-0.67 2,-1.550002 2.76,-2.160002 0.76,-0.61 1.25,-1 1.65,-1.23 a 8.8200001,8.8200001 0 0 1 1.17,-0.7 11.32,11.32 0 0 1 1.41,-0.58 4.5299999,4.5299999 0 0 1 1.18,-0.27 2.5799999,2.5799999 0 0 1 1.18,0.14 1.65,1.65 0 0 1 0.73,0.79 2.5499999,2.5499999 0 0 1 0.29,1.26 12.919999,12.919999 0 0 1 -0.55,2.430002 19.21,19.21 0 0 1 -1.58,4 15.849999,15.849999 0 0 1 -2.57,3.2 19.93,19.93 0 0 1 -2,1.75 14.999999,14.999999 0 0 1 -2,1.34 1.2399999,1.2399999 0 0 1 -1.1,0.17 2.75,2.75 0 0 1 -0.85,-0.48 0.99999998,0.99999998 0 0 1 -0.43,-0.72 2.07,2.07 0 0 1 0.28,-1.17 6.5899998,6.5899998 0 0 1 1,-1.15 c 0.42,-0.43 0.91,-0.95 1.55,-1.6 a 27.299999,27.299999 0 0 0 1.9,-2.07 3.9999999,3.9999999 0 0 0 0.75,-1.48 1.2199999,1.2199999 0 0 0 0,-0.74 0.60999999,0.60999999 0 0 0 -0.3,-0.37 c -0.13,0 -0.3,0 -0.55,0.14 a 7.8299995,7.8299995 0 0 0 -1.07,0.91 c -0.5,0.47 -1.15,1.13 -1.79,1.7 a 14.94,14.94 0 0 1 -2,1.55 28.789999,28.789999 0 0 1 -2.57,1.48 30.48,30.48 0 0 1 -3.74,1.65 c -1.54,0.56 -3.45,1.1 -4.88,1.53 a 30.069999,30.069999 0 0 0 -3,1 2,2 0 0 0 -1,0.67 0.69999998,0.69999998 0 0 0 0,0.74 1.68,1.68 0 0 0 0.93,0.73 8.74,8.74 0 0 0 1.59,0.3 7.5,7.5 0 0 0 1.38,0.14 11.59,11.59 0 0 0 2.33,-0.33 32.079999,32.079999 0 0 0 3.35,-1 c 1.1,-0.4 2.07,-0.83 2.8,-1.11 a 3.8299999,3.8299999 0 0 1 1.68,-0.36 1.8699999,1.8699999 0 0 1 1.15,0.55 2.07,2.07 0 0 1 0.57,1 1.73,1.73 0 0 1 -0.21,1.17 7.7,7.7 0 0 1 -1.17,1.6 c -0.51,0.56 -1.13,1.13 -1.5,1.55 a 1.5099999,1.5099999 0 0 0 -0.49,0.92 0.45999999,0.45999999 0 0 0 0.29,0.46 1.36,1.36 0 0 0 0.79,-0.1 c 0.39,-0.12 1,-0.31 1.45,-0.5 a 6.4999998,6.4999998 0 0 0 1.65,-0.87 c 0.7,-0.48 1.67,-1.25 2.64,-2.05 0.97,-0.8 2,-1.61 2.63,-2.21 a 13.32,13.32 0 0 0 1.58,-1.62 c 0.54,-0.63 1.24,-1.5 2,-2.49 0.76,-0.99 1.59,-2.12 2.47,-3.45 0.88,-1.33 1.83,-2.86 2.51,-3.79 a 4.5999999,4.5999999 0 0 1 1.48,-1.500002 3.5699999,3.5699999 0 0 1 1.11,-0.42 2.1699999,2.1699999 0 0 1 1,0 2.46,2.46 0 0 1 1,0.41 1.39,1.39 0 0 1 0.49,0.760002 3.8399999,3.8399999 0 0 1 0.21,1.39 5.5199998,5.5199998 0 0 1 -0.45,1.7 c -0.26,0.64 -0.6,1.36 -1,2.22 a 20.25,20.25 0 0 1 -1.73,2.84 25.999999,25.999999 0 0 1 -2.74,3 c -1,1 -2.11,2 -3.48,3.14 l -4.46,3.75 a 44.759999,44.759999 0 0 1 -4,3.19 39.329999,39.329999 0 0 1 -4.33,2.4 c -1.42,0.7 -2.71,1.33 -3.66,1.91 a 9.4199995,9.4199995 0 0 0 -2,1.57 2.2499999,2.2499999 0 0 0 -0.72,1.21 1.75,1.75 0 0 0 0.33,1.15 2.6099999,2.6099999 0 0 0 0.95,0.86 2.16,2.16 0 0 0 1.4,0.21 11.5,11.5 0 0 0 2.19,-0.74 28.539999,28.539999 0 0 0 3.11,-1.5 c 1.3,-0.73 2.93,-1.75 4.34,-2.72 1.41,-0.97 2.62,-1.87 3.83,-2.86 1.21,-0.99 2.43,-2.08 3.37,-2.93 0.94,-0.85 1.6,-1.48 2.63,-2.48 1.03,-1 2.43,-2.38 3.38,-3.37 0.95,-0.99 1.45,-1.59 1.83,-2 a 2.07,2.07 0 0 1 0.92,-0.59 1.07,1.07 0 0 1 0.9,0.08 1.65,1.65 0 0 1 0.74,1.07 2.7199999,2.7199999 0 0 1 -0.5,1.78 23.809999,23.809999 0 0 1 -1.81,2.56 c -0.68,0.87 -1.36,1.69 -2.26,2.72 -0.9,1.03 -2,2.29 -3.18,3.47 -1.18,1.18 -2.31,2.3 -3.14,3.13 a 16.41,16.41 0 0 0 -1.6,1.73 c -0.25,0.36 -0.26,0.52 -0.1,0.64 a 1.5899999,1.5899999 0 0 0 0.93,0.19 4.2599999,4.2599999 0 0 0 1.74,-0.41 15.52,15.52 0 0 0 2.55,-1.64 38.999999,38.999999 0 0 0 3.88,-3.23 c 1.58,-1.49 3.46,-3.48 5.05,-5.3 a 45.999999,45.999999 0 0 0 3.73,-4.73 7.9299995,7.9299995 0 0 0 1.27,-2.8 4.8199999,4.8199999 0 0 0 0.07,-1.74 1.64,1.64 0 0 0 -0.37,-0.89 0.99999998,0.99999998 0 0 0 -0.73,-0.36 2.1799999,2.1799999 0 0 0 -1.28,0.5 c -0.56,0.4 -1.27,1.08 -1.84,1.59 a 15.79,15.79 0 0 1 -1.33,1.1 2,2 0 0 1 -0.83,0.42 0.67999999,0.67999999 0 0 1 -0.68,-0.23 1.45,1.45 0 0 1 -0.18,-1.09 7.65,7.65 0 0 1 0.82,-2 c 0.49,-1 1.23,-2.32 1.85,-3.63 a 38.079999,38.079999 0 0 0 1.5,-3.56 12.55,12.55 0 0 0 0.68,-2.560001 20.419999,20.419999 0 0 0 0.2,-2.69 12.49,12.49 0 0 0 -0.14,-2.230001 6.4699999,6.4699999 0 0 0 -0.58,-1.839999 6.5499998,6.5499998 0 0 0 -0.94,-1.48 c -0.29,-0.3 -0.47,-0.3 -0.6,-0.25 -0.13,0.05 -0.22,0.15 -0.26,0.46 a 14.27,14.27 0 0 0 0,1.49 19.689999,19.689999 0 0 1 0,2.31 7.1999998,7.1999998 0 0 1 -0.4,2 2.9999999,2.9999999 0 0 1 -0.81,1.29 3.5399999,3.5399999 0 0 1 -1.46,0.77 2.2799999,2.2799999 0 0 1 -1.45,-0.08 2.5099999,2.5099999 0 0 1 -1,-0.83 1.42,1.42 0 0 1 -0.36,-1 6.4299999,6.4299999 0 0 1 0.59,-1.61 c 0.27,-0.59 0.56,-1.21 0.76,-1.77 a 6.2499998,6.2499998 0 0 0 0.38,-1.45 0.99999998,0.99999998 0 0 0 -0.2,-0.9 2.3199999,2.3199999 0 0 0 -1.09,-0.55 3.5399999,3.5399999 0 0 0 -1.48,-0.07 2.2799999,2.2799999 0 0 0 -1.27,0.78 c -0.47,0.48 -1.05,1.22 -1.61,1.89 -0.56,0.67 -1.12,1.24 -1.53,1.66 a 4.5299999,4.5299999 0 0 1 -0.94,0.81 1.82,1.82 0 0 1 -1.05,0.18 2.6099999,2.6099999 0 0 1 -1.46,-0.49 1.5999999,1.5999999 0 0 1 -0.49,-1.35 2.42,2.42 0 0 1 0.71,-1.39 20.519999,20.519999 0 0 1 1.57,-1.5 5.6499999,5.6499999 0 0 0 1.19,-1.26 1.8899999,1.8899999 0 0 0 0.28,-1.17 1.12,1.12 0 0 0 -0.42,-0.82 1.32,1.32 0 0 0 -1,-0.21 3.9999999,3.9999999 0 0 0 -1.41,0.79 c -0.59,0.43 -1.38,1 -2.26,1.62 -0.88,0.62 -1.87,1.2 -2.84,1.88 -0.97,0.68 -2,1.43 -2.91,2.1 -0.91,0.67 -1.88,1.26 -2.84,1.85 z"
         id="path3185-0"
         style="fill:#f15f22;fill-rule:evenodd;stroke:#000000;stroke-width:0.22px;stroke-miterlimit:22.93" />
      <path
         class="cls-21"
         d="m 581.6094,95.331578 c -1,0.59 -2,1.19 -3.33,1.89 -1.33,0.7 -3,1.49 -4.33,2.17 a 19.569999,19.569999 0 0 0 -2.83,1.690002 2.9999999,2.9999999 0 0 0 -1,1.09 1.1999999,1.1999999 0 0 0 -0.09,1 2.5999999,2.5999999 0 0 0 0.7,0.94 2,2 0 0 0 1,0.49 8.0000001,8.0000001 0 0 0 1.85,0.08 11.229999,11.229999 0 0 0 2.53,-0.4 24.089999,24.089999 0 0 0 2.83,-1 c 0.83,-0.36 1.43,-0.65 2.15,-1 a 21.629999,21.629999 0 0 0 2.52,-1.51 c 1,-0.67 2,-1.550002 2.76,-2.160002 0.76,-0.61 1.25,-1 1.65,-1.23 a 8.8200001,8.8200001 0 0 1 1.17,-0.7 11.32,11.32 0 0 1 1.41,-0.58 4.5299999,4.5299999 0 0 1 1.18,-0.27 2.5799999,2.5799999 0 0 1 1.18,0.14 1.65,1.65 0 0 1 0.73,0.79 2.5499999,2.5499999 0 0 1 0.29,1.26 12.919999,12.919999 0 0 1 -0.55,2.430002 19.21,19.21 0 0 1 -1.58,4 15.849999,15.849999 0 0 1 -2.57,3.2 19.93,19.93 0 0 1 -2,1.75 14.999999,14.999999 0 0 1 -2,1.34 1.2299999,1.2299999 0 0 1 -1.1,0.17 2.75,2.75 0 0 1 -0.85,-0.48 0.99999998,0.99999998 0 0 1 -0.43,-0.72 2.07,2.07 0 0 1 0.28,-1.17 6.5899998,6.5899998 0 0 1 1,-1.15 c 0.42,-0.43 0.91,-0.95 1.55,-1.6 a 27.299999,27.299999 0 0 0 1.9,-2.07 3.9999999,3.9999999 0 0 0 0.75,-1.48 1.2199999,1.2199999 0 0 0 0,-0.74 0.60999999,0.60999999 0 0 0 -0.3,-0.37 c -0.13,0 -0.3,0 -0.55,0.14 a 7.8299995,7.8299995 0 0 0 -1.07,0.91 c -0.5,0.47 -1.15,1.13 -1.79,1.7 a 14.94,14.94 0 0 1 -2,1.55 c -0.73,0.48 -1.56,1 -2.57,1.48 a 30.48,30.48 0 0 1 -3.74,1.65 c -1.54,0.56 -3.45,1.1 -4.88,1.53 a 30.069999,30.069999 0 0 0 -3,1 2,2 0 0 0 -1,0.67 0.69999998,0.69999998 0 0 0 0,0.74 1.68,1.68 0 0 0 0.93,0.73 8.74,8.74 0 0 0 1.59,0.3 7.5,7.5 0 0 0 1.38,0.14 11.59,11.59 0 0 0 2.33,-0.33 32.079999,32.079999 0 0 0 3.35,-1 c 1.1,-0.4 2.07,-0.83 2.8,-1.11 a 3.8299999,3.8299999 0 0 1 1.68,-0.36 1.8699999,1.8699999 0 0 1 1.15,0.55 2.07,2.07 0 0 1 0.57,1 1.73,1.73 0 0 1 -0.21,1.17 7.7,7.7 0 0 1 -1.17,1.6 c -0.51,0.56 -1.13,1.13 -1.5,1.55 a 1.5099999,1.5099999 0 0 0 -0.49,0.92 0.45999999,0.45999999 0 0 0 0.29,0.46 1.36,1.36 0 0 0 0.79,-0.1 c 0.39,-0.12 1,-0.31 1.45,-0.5 a 6.4999998,6.4999998 0 0 0 1.65,-0.87 c 0.7,-0.48 1.67,-1.25 2.64,-2 0.97,-0.75 2,-1.62 2.63,-2.22 a 13.32,13.32 0 0 0 1.58,-1.62 c 0.54,-0.63 1.24,-1.5 2,-2.49 0.76,-0.99 1.59,-2.12 2.47,-3.45 0.88,-1.33 1.83,-2.86 2.51,-3.79 a 4.5999999,4.5999999 0 0 1 1.48,-1.500002 3.5699999,3.5699999 0 0 1 1.11,-0.42 2.1699999,2.1699999 0 0 1 1,0 2.46,2.46 0 0 1 1,0.41 1.39,1.39 0 0 1 0.49,0.760002 3.8399999,3.8399999 0 0 1 0.21,1.39 5.5199998,5.5199998 0 0 1 -0.45,1.7 c -0.26,0.64 -0.6,1.36 -1,2.22 a 20.25,20.25 0 0 1 -1.73,2.84 25.999999,25.999999 0 0 1 -2.74,3 c -1,1 -2.11,2 -3.48,3.14 l -4.46,3.75 a 44.759999,44.759999 0 0 1 -4,3.19 39.329999,39.329999 0 0 1 -4.33,2.4 c -1.42,0.7 -2.71,1.33 -3.66,1.91 a 9.4199995,9.4199995 0 0 0 -2,1.57 2.2499999,2.2499999 0 0 0 -0.72,1.21 1.75,1.75 0 0 0 0.33,1.15 2.6099999,2.6099999 0 0 0 0.95,0.86 2.16,2.16 0 0 0 1.4,0.21 11.5,11.5 0 0 0 2.19,-0.74 28.539999,28.539999 0 0 0 3.11,-1.5 c 1.3,-0.73 2.93,-1.75 4.34,-2.72 1.41,-0.97 2.62,-1.87 3.83,-2.86 1.21,-0.99 2.43,-2.08 3.37,-2.93 0.94,-0.85 1.6,-1.48 2.63,-2.48 1.03,-1 2.43,-2.38 3.38,-3.37 0.95,-0.99 1.45,-1.59 1.83,-2 a 2.07,2.07 0 0 1 0.92,-0.59 1.07,1.07 0 0 1 0.9,0.08 1.65,1.65 0 0 1 0.74,1.07 2.7199999,2.7199999 0 0 1 -0.5,1.78 23.809999,23.809999 0 0 1 -1.81,2.56 c -0.68,0.87 -1.36,1.69 -2.26,2.72 -0.9,1.03 -2,2.29 -3.18,3.47 -1.18,1.18 -2.31,2.3 -3.14,3.13 a 16.41,16.41 0 0 0 -1.6,1.73 c -0.25,0.36 -0.26,0.52 -0.1,0.64 a 1.5899999,1.5899999 0 0 0 0.93,0.19 4.2599999,4.2599999 0 0 0 1.74,-0.41 15.52,15.52 0 0 0 2.55,-1.64 38.999999,38.999999 0 0 0 3.88,-3.23 c 1.58,-1.49 3.46,-3.48 5.05,-5.3 a 45.999999,45.999999 0 0 0 3.73,-4.73 7.9299995,7.9299995 0 0 0 1.27,-2.8 4.8199999,4.8199999 0 0 0 0.07,-1.74 1.64,1.64 0 0 0 -0.37,-0.89 0.99999998,0.99999998 0 0 0 -0.73,-0.36 2.1799999,2.1799999 0 0 0 -1.28,0.5 c -0.56,0.4 -1.27,1.08 -1.84,1.59 a 15.79,15.79 0 0 1 -1.33,1.1 2,2 0 0 1 -0.83,0.42 0.67999999,0.67999999 0 0 1 -0.68,-0.23 1.45,1.45 0 0 1 -0.18,-1.09 7.65,7.65 0 0 1 0.82,-2 c 0.49,-1 1.23,-2.32 1.85,-3.63 a 38.079999,38.079999 0 0 0 1.5,-3.56 12.55,12.55 0 0 0 0.68,-2.560002 20.419999,20.419999 0 0 0 0.2,-2.69 12.49,12.49 0 0 0 -0.14,-2.23 6.4699999,6.4699999 0 0 0 -0.58,-1.84 6.5499998,6.5499998 0 0 0 -0.94,-1.48 c -0.29,-0.3 -0.47,-0.3 -0.6,-0.25 -0.13,0.05 -0.22,0.15 -0.26,0.46 a 14.27,14.27 0 0 0 0,1.49 19.689999,19.689999 0 0 1 0,2.31 7.1999998,7.1999998 0 0 1 -0.4,2 2.9999999,2.9999999 0 0 1 -0.81,1.29 3.5399999,3.5399999 0 0 1 -1.46,0.77 2.2799999,2.2799999 0 0 1 -1.45,-0.08 2.5099999,2.5099999 0 0 1 -1,-0.83 1.42,1.42 0 0 1 -0.36,-1 6.4299999,6.4299999 0 0 1 0.59,-1.61 c 0.27,-0.59 0.56,-1.21 0.76,-1.77 a 6.2499998,6.2499998 0 0 0 0.38,-1.45 0.99999998,0.99999998 0 0 0 -0.2,-0.9 2.3199999,2.3199999 0 0 0 -1.09,-0.55 3.5399999,3.5399999 0 0 0 -1.48,-0.07 2.2799999,2.2799999 0 0 0 -1.27,0.78 c -0.47,0.48 -1.05,1.22 -1.61,1.89 -0.56,0.67 -1.12,1.24 -1.53,1.66 a 4.5299999,4.5299999 0 0 1 -0.94,0.81 1.82,1.82 0 0 1 -1.05,0.18 2.6099999,2.6099999 0 0 1 -1.46,-0.49 1.5999999,1.5999999 0 0 1 -0.49,-1.35 2.42,2.42 0 0 1 0.71,-1.39 20.519999,20.519999 0 0 1 1.57,-1.5 5.6499999,5.6499999 0 0 0 1.19,-1.26 1.8899999,1.8899999 0 0 0 0.28,-1.17 1.12,1.12 0 0 0 -0.42,-0.82 1.32,1.32 0 0 0 -1,-0.21 3.9999999,3.9999999 0 0 0 -1.41,0.79 c -0.59,0.43 -1.38,1 -2.26,1.62 -0.88,0.62 -1.87,1.2 -2.84,1.88 -0.97,0.68 -2,1.43 -2.91,2.099999 -0.91,0.67 -1.88,1.260001 -2.84,1.850001 z"
         id="path3187-3"
         style="fill:#f5855d;fill-rule:evenodd;stroke:#000000;stroke-width:0.22px;stroke-miterlimit:22.93" />
      <path
         class="cls-22"
         d="m 568.0794,102.66158 a 4.7299999,4.7299999 0 0 0 -0.39,1.22 5.5999998,5.5999998 0 0 0 0.17,2.48 9.3299998,9.3299998 0 0 0 1.11,2.35 2.9999999,2.9999999 0 0 0 0.74,0.82 l 0.27,-0.08 c 1.36,-0.42 2.94,-0.9 4.36,-1.4 1.42,-0.5 2.7,-1 3.81,-1.49 1.11,-0.49 2.05,-1 2.75,-1.36 0.7,-0.36 1.16,-0.72 1.67,-1.06 a 14.08,14.08 0 0 0 1.66,-1.18 c 0.59,-0.51 1.2,-1.17 1.8,-1.71 a 6.2299998,6.2299998 0 0 1 1.68,-1.14 1.36,1.36 0 0 1 1.18,0 1.43,1.43 0 0 1 0.75,0.86 2.9999999,2.9999999 0 0 1 0,1.39 3.3399999,3.3399999 0 0 1 -0.55,1.42 10.48,10.48 0 0 1 -1.32,1.39 c -0.49,0.49 -1,1 -1.5,1.55 -0.5,0.55 -1.07,1.12 -1.45,1.55 a 3.7999999,3.7999999 0 0 0 -0.7,1 0.53999999,0.53999999 0 0 0 0.11,0.57 0.58999998,0.58999998 0 0 0 0.63,0.17 4.2099999,4.2099999 0 0 0 1.25,-0.81 19.649999,19.649999 0 0 0 1.88,-1.76 17.159999,17.159999 0 0 0 1.68,-2.2 24.08,24.08 0 0 0 1.69,-2.85 15.34,15.34 0 0 0 1.1,-2.860002 4.8999999,4.8999999 0 0 0 0.18,-1.67 1.76,1.76 0 0 0 -0.22,-0.81 c -0.09,-0.15 -0.21,-0.18 -0.51,-0.19 a 4.2299999,4.2299999 0 0 0 -1.27,0.15 4.8199999,4.8199999 0 0 0 -1.5,0.84 c -0.56,0.43 -1.24,1 -2,1.61 -0.76,0.610002 -1.67,1.200002 -2.57,1.790002 -0.9,0.59 -1.78,1.15 -3.15,1.88 a 44.149999,44.149999 0 0 1 -4.65,2.15 14.109999,14.109999 0 0 1 -3.29,0.83 9.9999998,9.9999998 0 0 1 -2.31,0.1 3.6699999,3.6699999 0 0 1 -1.49,-0.55 3.5699999,3.5699999 0 0 1 -1.17,-1 2.77,2.77 0 0 1 -0.45,-1.54 c 0,-0.13 0,-0.25 0,-0.37 z"
         id="path3191-9"
         style="fill:#c9471e;fill-rule:evenodd;stroke:#000000;stroke-width:0.22px;stroke-miterlimit:22.93" />
      <path
         class="cls-22"
         d="m 578.5094,118.20158 a 5.6099998,5.6099998 0 0 0 0.11,1.93 3.9999999,3.9999999 0 0 0 1.22,2 2.7099999,2.7099999 0 0 0 1.2,0.58 c 0.44,-0.23 0.88,-0.46 1.28,-0.69 a 34.999999,34.999999 0 0 0 3.45,-2.3 c 1.06,-0.77 2.14,-1.55 3.41,-2.56 1.27,-1.01 2.71,-2.24 4,-3.41 1.29,-1.17 2.46,-2.27 3.32,-3.11 a 27.759999,27.759999 0 0 0 1.94,-2 18.429999,18.429999 0 0 0 1.45,-2 c 0.49,-0.76 1,-1.63 1.38,-2.37 a 10.84,10.84 0 0 0 0.77,-1.88 3.2999999,3.2999999 0 0 0 0.15,-1.44 1.06,1.06 0 0 0 -0.62,-0.8 1.7,1.7 0 0 0 -1,0 1.46,1.46 0 0 0 -0.75,0.4 8.3799996,8.3799996 0 0 0 -1.11,1.32 c -0.56,0.77 -1.39,2 -2.17,3.09 -0.78,1.09 -1.51,2.23 -2.23,3.21 -0.72,0.98 -1.44,1.87 -2.22,2.76 -0.78,0.89 -1.59,1.8 -2.44,2.62 a 31.799999,31.799999 0 0 1 -2.74,2.35 32.999999,32.999999 0 0 1 -3,2.12 8.7599998,8.7599998 0 0 1 -2.29,1.05 4.6499999,4.6499999 0 0 1 -1.64,-0.05 2,2 0 0 1 -1.22,-0.39 1.11,1.11 0 0 1 -0.28,-0.45 z"
         id="path3193-7"
         style="fill:#c9471e;fill-rule:evenodd;stroke:#000000;stroke-width:0.22px;stroke-miterlimit:22.93" />
      <path
         class="cls-22"
         d="m 590.4194,127.92158 a 1.41,1.41 0 0 0 -0.42,0.57 8.6099998,8.6099998 0 0 0 -0.38,2.06 7.8399998,7.8399998 0 0 1 -0.33,2.05 18.999999,18.999999 0 0 1 -1.13,2.26 9.1299997,9.1299997 0 0 0 -1.05,2.72 4.8899999,4.8899999 0 0 0 0.26,2.5 1.6199999,1.6199999 0 0 0 1.22,1.19 3.5799999,3.5799999 0 0 0 2.44,-0.8 16.619999,16.619999 0 0 0 3,-2.78 c 0.81,-1 1.23,-1.75 2,-2.71 0.77,-0.96 1.94,-2.08 3,-3.15 a 40.149999,40.149999 0 0 0 3.35,-3.81 c 1.34,-1.73 3.1,-4.18 4.69,-6.56 1.59,-2.38 3,-4.68 3.87,-6.18 a 21.07,21.07 0 0 0 1.44,-2.77 7.3699998,7.3699998 0 0 0 0.48,-1.81 8.0000001,8.0000001 0 0 0 0.07,-2.08 1.09,1.09 0 0 0 -0.05,-0.14 7.1299999,7.1299999 0 0 1 -0.41,2.42 21.849999,21.849999 0 0 1 -2.11,4 30.999999,30.999999 0 0 1 -3,3.91 c -1.39,1.58 -3.34,3.67 -5.13,5.41 a 41.169999,41.169999 0 0 1 -4.64,4 7.3699998,7.3699998 0 0 1 -3.05,1.42 9.5400001,9.5400001 0 0 1 -2.78,0.11 c -0.74,-0.08 -1.14,-0.26 -1.35,-0.56 a 1.11,1.11 0 0 1 -0.08,-1.12 l 0.12,-0.21 z"
         id="path3195-5"
         style="fill:#c9471e;fill-rule:evenodd;stroke:#000000;stroke-width:0.22px;stroke-miterlimit:22.93" />
      <path
         class="cls-22"
         d="m 573.1794,129.15158 c -0.15,0.56 -0.33,1.51 -0.52,2.38 -0.19,0.87 -0.47,1.92 -0.79,3 -0.32,1.08 -0.72,2.33 -1,3.6 a 15.769999,15.769999 0 0 0 -0.35,3.61 4.7199999,4.7199999 0 0 0 0.62,2.49 2.5799999,2.5799999 0 0 0 1.65,1.07 3.6499999,3.6499999 0 0 0 2.24,-0.16 16.939999,16.939999 0 0 0 2.61,-1.64 c 1,-0.69 2.27,-1.42 3.13,-2.06 a 18.24,18.24 0 0 1 2,-1.48 11.24,11.24 0 0 1 2,-0.62 8.8099998,8.8099998 0 0 0 1.77,-0.77 l 0.49,-0.28 a 4.3399999,4.3399999 0 0 1 0.06,-0.71 9.1299997,9.1299997 0 0 1 1.05,-2.72 18.999999,18.999999 0 0 0 1.13,-2.26 7.8399998,7.8399998 0 0 0 0.33,-2.05 8.6099998,8.6099998 0 0 1 0.38,-2.06 1.41,1.41 0 0 1 0.42,-0.57 9.3699995,9.3699995 0 0 1 1.28,-1.34 c 0.8,-0.74 2,-1.83 3,-2.79 1,-0.96 1.71,-1.78 2.77,-3 1.06,-1.22 2.45,-2.72 3.39,-3.83 a 21.109999,21.109999 0 0 0 1.78,-2.32 4.2499999,4.2499999 0 0 0 0.53,-1.1 c 0.06,-0.24 0.05,-0.41 -0.08,-0.5 a 0.63999999,0.63999999 0 0 0 -0.69,0.12 9.91,9.91 0 0 0 -1.2,1.3 c -0.56,0.63 -1.31,1.46 -2.26,2.41 -0.95,0.95 -2.09,2 -3.51,3.32 -1.42,1.32 -3.12,2.78 -4.77,4.15 a 41.119999,41.119999 0 0 1 -9.85,6.31 15.16,15.16 0 0 1 -3.21,1.23 4.6299999,4.6299999 0 0 1 -2.18,0 2.6499999,2.6499999 0 0 1 -1.42,-0.86 3.5299999,3.5299999 0 0 1 -0.82,-1.73 0.61999998,0.61999998 0 0 1 0,-0.13 z"
         id="path3197-9"
         style="fill:#c9471e;fill-rule:evenodd;stroke:#000000;stroke-width:0.22px;stroke-miterlimit:22.93" />
      <path
         class="cls-22"
         d="m 565.7294,111.61158 a 0.83999994,0.83999994 0 0 0 -0.15,0.3 7.2199998,7.2199998 0 0 0 -0.13,2.4 3.9999999,3.9999999 0 0 0 0.68,2 7.6300002,7.6300002 0 0 0 1.51,1.55 l 0.17,0.14 c 0.78,-0.31 1.56,-0.64 2.25,-0.88 a 8.17,8.17 0 0 1 2.45,-0.5 3.5899999,3.5899999 0 0 1 1.71,0.31 2,2 0 0 1 1,0.86 2.47,2.47 0 0 1 0.67,1 4.9999999,4.9999999 0 0 1 0.37,2.05 6.7299998,6.7299998 0 0 1 -0.52,2.12 c -0.24,0.58 -0.48,1 -0.7,1.41 a 8.9999996,8.9999996 0 0 0 -0.62,1.73 c -0.06,0.22 -0.12,0.47 -0.18,0.72 a 7.7099996,7.7099996 0 0 1 1.1,-1 18.17,18.17 0 0 1 2.75,-1.6 c 0.87,-0.44 2,-1 3,-1.5 a 2.7099999,2.7099999 0 0 1 -1.2,-0.58 3.9999999,3.9999999 0 0 1 -1.22,-2 5.6099998,5.6099998 0 0 1 -0.11,-1.93 v 0 a 1.39,1.39 0 0 1 -0.07,-0.7 2.5699999,2.5699999 0 0 1 0.85,-1.28 c 0.51,-0.53 1.26,-1.21 1.85,-1.78 a 4.5699999,4.5699999 0 0 0 1.1,-1.32 0.63999999,0.63999999 0 0 0 -0.31,-0.71 1.69,1.69 0 0 0 -0.71,-0.39 2.11,2.11 0 0 0 -1.29,0.11 c -0.64,0.2 -1.57,0.64 -2.57,1 a 27.349999,27.349999 0 0 1 -3,1 14.209999,14.209999 0 0 1 -2.44,0.48 8.6599998,8.6599998 0 0 1 -1.84,0 6.9999998,6.9999998 0 0 1 -2,-0.46 5.7799999,5.7799999 0 0 1 -1.83,-1.24 1.5199999,1.5199999 0 0 1 -0.5,-1.28 0.29999999,0.29999999 0 0 1 0,-0.1 z"
         id="path3199-5"
         style="fill:#c9471e;fill-rule:evenodd;stroke:#000000;stroke-width:0.22px;stroke-miterlimit:22.93" />
      <path
         class="cls-23"
         d="m 572.7294,106.45158 a 0.62999998,0.62999998 0 0 0 -0.66,0.6 0.61999998,0.61999998 0 0 0 0.62,0.63 0.61999998,0.61999998 0 1 0 0,-1.23 z"
         id="path3307-5"
         style="fill:#003367;fill-rule:evenodd;stroke:#000000;stroke-width:0.22px;stroke-miterlimit:22.93" />
      <path
         class="cls-23"
         d="m 581.0894,104.25158 a 0.60999999,0.60999999 0 0 0 -0.44,1.08 l 0.25,-0.13 c 0.3,-0.17 0.56,-0.33 0.79,-0.48 a 0.61999998,0.61999998 0 0 0 -0.6,-0.47 z"
         id="path3309-6"
         style="fill:#003367;fill-rule:evenodd;stroke:#000000;stroke-width:0.22px;stroke-miterlimit:22.93" />
      <path
         class="cls-23"
         d="m 591.4494,98.021578 a 0.61999998,0.61999998 0 1 0 0,1.23 0.62999998,0.62999998 0 0 0 0.65,-0.6 0.61999998,0.61999998 0 0 0 -0.62,-0.63 z"
         id="path3311-7"
         style="fill:#003367;fill-rule:evenodd;stroke:#000000;stroke-width:0.22px;stroke-miterlimit:22.93" />
      <path
         class="cls-23"
         d="m 598.6194,103.66158 a 0.61999998,0.61999998 0 1 0 0.62,0.64 0.62999998,0.62999998 0 0 0 -0.62,-0.64 z"
         id="path3315-7"
         style="fill:#003367;fill-rule:evenodd;stroke:#000000;stroke-width:0.22px;stroke-miterlimit:22.93" />
      <path
         class="cls-23"
         d="m 596.7694,107.76158 a 0.61999998,0.61999998 0 1 0 0.62,0.64 0.63999999,0.63999999 0 0 0 -0.62,-0.64 z"
         id="path3317-9"
         style="fill:#003367;fill-rule:evenodd;stroke:#000000;stroke-width:0.22px;stroke-miterlimit:22.93" />
      <path
         class="cls-23"
         d="m 581.9094,118.87158 a 0.46999999,0.46999999 0 0 0 0,0.17 0.63999999,0.63999999 0 0 0 1.27,0 0.59999999,0.59999999 0 0 0 -0.33,-0.56 8.5200001,8.5200001 0 0 1 -0.91,0.36 z"
         id="path3323-4"
         style="fill:#003367;fill-rule:evenodd;stroke:#000000;stroke-width:0.22px;stroke-miterlimit:22.93" />
      <path
         class="cls-23"
         d="m 579.2994,113.77158 a 0.61999998,0.61999998 0 1 0 0.62,0.63 0.62999998,0.62999998 0 0 0 -0.62,-0.63 z"
         id="path3325-7"
         style="fill:#003367;fill-rule:evenodd;stroke:#000000;stroke-width:0.22px;stroke-miterlimit:22.93" />
      <path
         class="cls-23"
         d="m 575.1194,114.93158 a 0.62999998,0.62999998 0 0 0 -0.65,0.61 0.61999998,0.61999998 0 0 0 0.62,0.63 0.62999998,0.62999998 0 0 0 0.65,-0.6 0.62999998,0.62999998 0 0 0 -0.62,-0.64 z"
         id="path3327-0"
         style="fill:#003367;fill-rule:evenodd;stroke:#000000;stroke-width:0.22px;stroke-miterlimit:22.93" />
      <path
         class="cls-23"
         d="m 576.7594,117.50158 a 0.62999998,0.62999998 0 0 0 -0.65,0.6 0.62999998,0.62999998 0 0 0 0.62,0.64 0.6200005,0.6200005 0 1 0 0,-1.24 z"
         id="path3329-9"
         style="fill:#003367;fill-rule:evenodd;stroke:#000000;stroke-width:0.22px;stroke-miterlimit:22.93" />
      <path
         class="cls-23"
         d="m 577.3294,121.15158 a 0.61999998,0.61999998 0 1 0 0.62,0.64 0.62999998,0.62999998 0 0 0 -0.62,-0.64 z"
         id="path3331-4"
         style="fill:#003367;fill-rule:evenodd;stroke:#000000;stroke-width:0.22px;stroke-miterlimit:22.93" />
      <path
         class="cls-23"
         d="m 574.7094,132.82158 a 0.61999998,0.61999998 0 1 0 0.62,0.64 0.62999998,0.62999998 0 0 0 -0.62,-0.64 z"
         id="path3335-2"
         style="fill:#003367;fill-rule:evenodd;stroke:#000000;stroke-width:0.22px;stroke-miterlimit:22.93" />
      <path
         class="cls-23"
         d="m 581.7594,131.93158 a 0.62999998,0.62999998 0 0 0 -0.65,0.6 0.62999998,0.62999998 0 0 0 0.62,0.64 0.62,0.62 0 1 0 0,-1.24 z"
         id="path3337-14"
         style="fill:#003367;fill-rule:evenodd;stroke:#000000;stroke-width:0.22px;stroke-miterlimit:22.93" />
      <path
         class="cls-23"
         d="m 587.6894,128.90158 a 0.61999998,0.61999998 0 1 0 0,1.23 0.61999998,0.61999998 0 1 0 0,-1.23 z"
         id="path3339-0"
         style="fill:#003367;fill-rule:evenodd;stroke:#000000;stroke-width:0.22px;stroke-miterlimit:22.93" />
    </g>
  </g>
</svg>
