<?xml version="1.0" encoding="UTF-8" standalone="no"?>
<svg
   xmlns:dc="http://purl.org/dc/elements/1.1/"
   xmlns:cc="http://creativecommons.org/ns#"
   xmlns:rdf="http://www.w3.org/1999/02/22-rdf-syntax-ns#"
   xmlns:svg="http://www.w3.org/2000/svg"
   xmlns="http://www.w3.org/2000/svg"
   xmlns:sodipodi="http://sodipodi.sourceforge.net/DTD/sodipodi-0.dtd"
   xmlns:inkscape="http://www.inkscape.org/namespaces/inkscape"
   width="210mm"
   height="297mm"
   viewBox="0 0 210 297"
   version="1.1"
   id="svg8"
   inkscape:version="1.0.1 (3bc2e813f5, 2020-09-07)"
   sodipodi:docname="kodols.svg">
  <defs
     id="defs2" />
  <sodipodi:namedview
     id="base"
     pagecolor="#ffffff"
     bordercolor="#666666"
     borderopacity="1.0"
     inkscape:pageopacity="0.0"
     inkscape:pageshadow="2"
     inkscape:zoom="0.35"
     inkscape:cx="-408.99217"
     inkscape:cy="70.186658"
     inkscape:document-units="mm"
     inkscape:current-layer="layer1"
     inkscape:document-rotation="0"
     showgrid="false"
     inkscape:window-width="1920"
     inkscape:window-height="1001"
     inkscape:window-x="-9"
     inkscape:window-y="-9"
     inkscape:window-maximized="1" />
  <metadata
     id="metadata5">
    <rdf:RDF>
      <cc:Work
         rdf:about="">
        <dc:format>image/svg+xml</dc:format>
        <dc:type
           rdf:resource="http://purl.org/dc/dcmitype/StillImage" />
        <dc:title></dc:title>
      </cc:Work>
    </rdf:RDF>
  </metadata>
  <g
     inkscape:label="Layer 1"
     inkscape:groupmode="layer"
     id="layer1">
    <g
       id="g975"
       transform="matrix(2.1172138,0,0,1.9373835,-129.02357,-21.496312)">
      <path
         class="cls-24"
         d="m 152.17773,113.95407 c 0.36149,-0.92499 0.74821,-1.91473 1.16017,-2.99697 a 65.163097,71.696065 0 0 0 2.83316,-8.78742 10.550856,11.608639 0 0 0 0.18493,-6.363936 9.9623621,10.961145 0 0 0 -2.68184,-4.393706 24.086218,26.500996 0 0 0 -4.523,-3.977464 50.896322,55.998965 0 0 0 -5.80085,-3.376217 5.1367119,5.6516962 0 0 0 -1.95885,-0.702995 c -0.17653,0 -0.17653,0 -0.0925,-0.462494 a 12.526515,13.782369 0 0 0 0.31108,-2.432727 19.336231,21.274797 0 0 0 -0.39513,-4.486207 66.609112,73.28705 0 0 0 -1.58894,-7.917923 26.255239,28.887475 0 0 0 -2.52212,-6.604437 33.350794,36.694399 0 0 0 -3.36282,-5.198449 29.979564,32.985184 0 0 0 -2.71548,-3.117222 22.043303,24.253268 0 0 0 -3.00132,-2.673224 24.935331,27.435239 0 0 0 -3.95972,-2.20148 30.366289,33.41068 0 0 0 -4.20353,-1.581735 28.827798,31.717947 0 0 0 -5.42255,-0.924989 58.546744,64.416384 0 0 0 -7.60839,0 46.238812,50.874513 0 0 0 -7.650422,1.211738 51.61933,56.794458 0 0 0 -7.953074,2.700973 35.30964,38.84963 0 0 0 -6.725645,3.949713 32.787521,36.074655 0 0 0 -4.758395,4.27346 26.667184,29.340719 0 0 0 -2.866806,3.764714 c -0.840707,1.294986 -1.748668,2.774973 -2.589374,4.301209 -0.840706,1.526236 -1.68141,3.070969 -2.286718,4.439955 -0.605308,1.368986 -1.143362,2.552976 -1.681413,3.986711 a 30.055229,33.068434 0 0 0 -1.605748,5.115202 41.07688,45.195068 0 0 0 -0.891148,6.31769 c -0.184949,2.099729 -0.285838,4.042211 -0.285838,6.243691 a 49.668892,54.648478 0 0 0 0.403537,7.35368 c 0.134523,1.119239 0.302655,2.275479 0.504424,3.533469 v 0 0 0 0 0 0 0 0 0 0 0 0 0 0 0 0 0 0 0 0 0 0 0 0 0 0 0 0 0 0 0 0 0 0 0 0 0 0 0 0 0 0 0 0 0 0 0 0 0 0 0 0 0 0 0 0 0 0 0 0 0 0 0 0 0 0 0 0 0 0 0 0 0 0 a 18.352605,20.192557 0 0 0 1.681412,1.73898 4.9265352,5.4204481 0 0 1 1.916809,2.62698 h 0.08407 a 5.0442341,5.5499469 0 0 1 0,1.46148 c 0,0.56425 0,1.33199 0,2.12748 H 72.4536 a 1.0088468,1.1099894 0 0 1 0.840706,0.20349 c 0.294246,0.20349 0.647343,0.54575 1.45442,1.05449 a 23.153035,25.474257 0 0 0 3.127426,1.62799 c 1.059288,0.42549 1.925216,0.61049 2.665036,0.83249 a 5.4057377,5.9476933 0 0 1 1.874774,0.92499 3.5141499,3.8664632 0 0 1 1.143361,1.66498 2.9845053,3.2837187 0 0 1 0.09249,1.97948 4.7752083,5.2539498 0 0 1 -0.529646,1.41524 10.273424,11.303392 0 0 1 1.311503,0.54574 c 0.975218,0.4625 2.169019,1.12849 3.497334,1.84998 1.328316,0.7215 2.665038,1.50774 4.094235,2.16448 a 2.5221172,2.7749736 0 0 1 -0.159736,-0.58274 7.1039627,7.8161749 0 0 1 -0.100875,-1.59098 4.438926,4.8839534 0 0 1 0.218574,-1.59099 1.3787573,1.5169855 0 0 1 0.04204,-0.29599 1.2526515,1.3782369 0 0 1 0.781855,-0.80475 5.1367119,5.6516962 0 0 1 2.177429,-0.37924 34.796809,38.285385 0 0 1 3.959723,0.39774 c 1.286281,0.19426 2.278321,0.3885 3.783181,0.65675 1.50486,0.26824 3.53937,0.58274 5.51503,0.92499 1.97566,0.34225 3.89246,0.63824 5.93538,1.07299 2.04291,0.43474 4.20353,0.98048 6.35574,1.25798 a 56.377722,62.029906 0 0 0 5.82608,0.32375 20.883129,22.976781 0 0 1 3.64867,0.296 6.1035233,6.7154358 0 0 1 2.14379,0.98974 2.6061876,2.8674725 0 0 1 0.95001,1.10999 1.1433597,1.257988 0 0 1 0.10928,0.38849 0.7566351,0.83249203 0 0 1 0.15133,0.43475 6.212815,6.8356847 0 0 1 0.10928,1.71123 15.670754,17.241836 0 0 1 -0.3615,3.01548 17.074733,18.786571 0 0 1 -0.79027,2.66397 l -0.15973,0.45325 0.96681,0.10176 a 3.3628227,3.6999646 0 0 1 0.12611,-0.925 0.70619275,0.77699255 0 0 1 0.12611,-0.2775 v 0 c 0.0757,-0.33299 0.31106,-0.64749 0.84071,-0.92499 a 19.336231,21.274797 0 0 1 2.52211,-0.92499 2.5221172,2.7749736 0 0 1 -0.62212,-0.75849 7.8437842,8.6301677 0 0 1 -0.93318,-2.17373 4.7079518,5.1799505 0 0 1 -0.14291,-2.29398 3.9765379,4.3752083 0 0 1 0.32787,-1.12849 2.3455689,2.5807254 0 0 1 0.44558,-1.15624 7.0703349,7.7791758 0 0 1 2.04291,-1.84998 c 1.14336,-0.77699 2.87521,-1.84998 4.49778,-2.77497 1.62256,-0.92499 3.14423,-1.93323 4.20352,-2.61773 1.05929,-0.68449 1.62258,-1.11924 2.33716,-1.63723 l 2.30353,-1.56323 c 0.31947,-0.24049 0.63895,-0.47175 0.9416,-0.71225 z"
         id="path3341"
         style="fill:#5ebeec;fill-rule:evenodd;stroke:#000000;stroke-width:0.194005px;stroke-miterlimit:22.93" />
      <path
         class="cls-25"
         d="m 136.51537,65.947031 a 24.70834,27.185491 0 0 1 1.10132,3.440967 37.596358,41.365605 0 0 1 0.94159,4.347457 32.434426,35.68616 0 0 1 0.42876,4.513958 c 0.0588,1.368986 0,2.506725 0,3.487216 0,0.980491 -0.0421,1.794484 -0.0505,2.201479 -0.008,0.406996 0,0.406996 0.2354,0.517994 0.2354,0.110988 0.73142,0.351496 1.53849,0.776995 0.80708,0.425493 1.93363,1.045238 3.07699,1.701981 1.14336,0.656746 2.28673,1.350488 3.13584,1.849984 0.8491,0.499496 1.37874,0.924992 2.01768,1.405987 0.63895,0.480995 1.39557,1.045241 2.00089,1.516985 a 12.038906,13.245874 0 0 1 1.46281,1.322737 5.8849399,6.4749382 0 0 1 1.10133,1.544737 4.0185731,4.4214577 0 0 1 0.44558,1.849981 6.8937869,7.5849279 0 0 1 -0.15966,1.997981 3.5225568,3.8757129 0 0 1 -0.76506,1.76673 12.383595,13.62512 0 0 1 -2.11017,1.97948 c -0.92477,0.71225 -2.03448,1.47999 -3.02653,2.09973 a 29.315407,32.254441 0 0 1 -2.84158,1.60024 c -0.97522,0.49024 -2.06814,0.92499 -3.11061,1.38748 a 28.382223,31.227701 0 0 1 -3.31239,1.11924 c -1.29468,0.3515 -2.90043,0.6845 -4.15308,0.925 -1.25265,0.24048 -2.16061,0.40699 -3.49733,0.61049 -1.33673,0.20349 -3.13584,0.47175 -4.86769,0.67524 -1.73186,0.2035 -3.41327,0.3515 -5.56547,0.41625 -2.15221,0.0647 -4.77521,0.0647 -7.07034,0 -2.29513,-0.0647 -4.20353,-0.222 -6.24644,-0.43475 -2.04292,-0.21274 -4.02698,-0.48099 -5.62432,-0.77699 a 37.672022,41.448855 0 0 1 -4.430587,-1.01749 c -1.580528,-0.481 -3.539371,-1.16549 -5.203969,-1.84998 -1.664595,-0.6845 -3.043353,-1.24874 -4.279191,-1.84998 -1.235836,-0.60125 -2.320348,-1.22099 -3.362823,-1.84999 -1.042475,-0.62899 -2.0261,-1.10074 -2.580966,-1.41523 a 5.4225518,5.9661931 0 0 1 -0.723007,-0.444 c -0.05045,-0.0463 -0.05045,-0.0463 0,-0.81399 0.05045,-0.767742 0.100875,-2.312479 0.201773,-3.440967 a 19.25216,21.182298 0 0 1 0.40354,-2.691725 c 0.159736,-0.850992 0.353097,-1.849981 0.65575,-3.459467 0.302655,-1.609484 0.706192,-3.838714 1.151767,-5.771946 a 44.826427,49.320529 0 0 1 1.429199,-5.041202 c 0.496016,-1.479984 1.017255,-2.774972 1.572121,-4.208708 0.554866,-1.433738 1.151766,-2.895221 1.68141,-4.153211 0.529646,-1.257988 1.017255,-2.303226 1.538494,-3.329966 a 27.19683,29.923465 0 0 1 1.790701,-3.089473 37.369367,41.115857 0 0 1 2.522117,-3.348465 36.192381,39.820871 0 0 1 2.950876,-3.246721 c 1.008847,-0.971241 2.03451,-1.849981 2.984505,-2.562226 0.95,-0.712242 1.81592,-1.470734 2.67345,-2.081228 a 20.62251,22.690033 0 0 1 2.58096,-1.581735 25.380905,27.925484 0 0 1 2.83318,-1.211739 27.474263,30.228712 0 0 1 2.9845,-0.924992 c 1.00885,-0.249742 2.04292,-0.434746 3.03495,-0.591993 a 23.102593,25.418758 0 0 1 2.90884,-0.295997 19.479151,21.432045 0 0 1 2.90044,0.194262 16.133142,17.750581 0 0 1 2.57256,0.536494 11.601739,12.764878 0 0 1 1.81592,0.823241 18.672073,20.544054 0 0 1 2.0177,1.17474 30.315847,33.355181 0 0 1 3.03494,2.321728 15.3681,16.908838 0 0 1 2.03451,2.210728 c 0.65575,0.823244 1.46283,1.849983 2.07654,2.774973 a 17.730483,19.508064 0 0 1 1.57212,2.691725 c 0.52965,1.063741 1.16858,2.460478 1.63938,3.699965 z"
         id="path3343"
         style="fill:#8bc0e8;fill-rule:evenodd;stroke:#000000;stroke-width:0.194005px;stroke-miterlimit:22.93" />
      <path
         class="cls-26"
         d="m 138.97023,84.271104 -2.10176,0.675244 c -2.09336,0.665993 -6.28848,2.007231 -15.97341,4.874704 -9.68493,2.867474 -24.784007,7.242679 -32.350356,9.425661 l -7.566352,2.192227 c -0.05045,-0.0463 -0.05045,-0.0555 0,-0.81399 0.05045,-0.758495 0.100875,-2.312479 0.201774,-3.440967 a 19.25216,21.182298 0 0 1 0.403537,-2.691725 c 0.159736,-0.850992 0.353095,-1.849984 0.65575,-3.459467 0.302653,-1.609486 0.706192,-3.838714 1.151766,-5.771946 a 44.826427,49.320529 0 0 1 1.4292,-5.041202 c 0.496016,-1.479984 1.017255,-2.774973 1.572121,-4.208711 0.554866,-1.433735 1.151766,-2.895221 1.68141,-4.153208 0.529646,-1.257988 1.017255,-2.303228 1.538491,-3.329968 a 27.19683,29.923465 0 0 1 1.790704,-3.089471 37.369367,41.115857 0 0 1 2.522117,-3.348468 36.192381,39.820871 0 0 1 2.950876,-3.246718 c 1.008847,-0.971241 2.034507,-1.849984 2.984505,-2.562226 0.949997,-0.712243 1.815927,-1.470737 2.673447,-2.081228 a 20.62251,22.690033 0 0 1 2.58096,-1.581735 25.380905,27.925484 0 0 1 2.83318,-1.211739 27.474263,30.228712 0 0 1 2.98451,-0.924992 c 1.00884,-0.249742 2.04291,-0.434746 3.03494,-0.591993 a 23.102593,25.418758 0 0 1 2.90885,-0.296 19.479151,21.432045 0 0 1 2.90043,0.194262 16.133142,17.750581 0 0 1 2.57256,0.536497 11.601739,12.764878 0 0 1 1.81592,0.823241 18.672073,20.544054 0 0 1 2.0177,1.17474 30.315847,33.355181 0 0 1 3.03495,2.321726 15.3681,16.908838 0 0 1 2.03451,2.21073 c 0.65575,0.823241 1.46282,1.849981 2.07653,2.774973 a 17.730483,19.508064 0 0 1 1.57213,2.691725 c 0.52964,1.063738 1.16858,2.460475 1.63937,3.699964 a 24.70834,27.185491 0 0 1 1.07611,3.366967 37.596358,41.365605 0 0 1 0.94159,4.347458 32.434426,35.68616 0 0 1 0.42875,4.513958 c 0.0588,1.368985 0,2.506724 0,3.487215 0,0.980491 -0.0421,1.794484 -0.0505,2.20148 a 1.0004398,1.1007395 0 0 0 0,0.323747 z"
         id="path3345"
         style="fill:#87bfe8;fill-rule:evenodd;stroke:#000000;stroke-width:0.194005px;stroke-miterlimit:22.93" />
      <path
         class="cls-28"
         d="m 155.76752,94.307259 c 0.0755,0.638243 0.12606,1.202488 0.14298,1.720482 a 8.4490922,9.2961613 0 0 1 -0.31106,3.024723 6.1960008,6.8171848 0 0 1 -0.74823,1.951726 10.19776,11.220143 0 0 1 -1.44602,1.97949 10.466786,11.51614 0 0 1 -2.44644,1.95173 40.917146,45.01932 0 0 1 -4.94334,2.37723 c -2.21947,0.92499 -5.04424,2.01647 -7.45707,2.71947 -2.41282,0.70299 -4.39689,1.02674 -5.88494,1.30424 -1.48805,0.27749 -2.40442,0.50874 -3.84202,0.72149 -1.43761,0.21275 -3.36283,0.407 -5.473,0.57349 -2.11017,0.1665 -4.32963,0.296 -7.05352,0.333 -2.72389,0.037 -5.88494,0 -8.26413,-0.12024 a 35.469374,39.025378 0 0 1 -5.95221,-0.69375 c -2.152255,-0.45325 -4.993841,-1.21174 -7.389851,-1.97023 a 44.834835,49.329779 0 0 1 -6.910602,-2.77498 c -2.522116,-1.28573 -5.725205,-3.11722 -7.347766,-4.13471 -1.622563,-1.01749 -1.681412,-1.23948 -1.757077,-1.35048 -0.07566,-0.11099 -0.04204,-0.11099 0,-1.10074 0.04204,-0.989743 0.210186,-2.969224 0.479204,-5.115204 0.269026,-2.145981 0.664158,-4.449208 1.034068,-6.373189 0.369909,-1.923981 0.706192,-3.477968 1.084509,-4.994953 0.37832,-1.516986 0.840706,-3.033972 1.387165,-4.745206 0.546458,-1.711231 1.303095,-3.699962 1.883181,-5.161451 0.580086,-1.461483 1.034067,-2.580724 1.630968,-3.866459 0.596903,-1.285739 1.34513,-2.774973 2.068137,-4.097713 0.723007,-1.322737 1.420792,-2.497476 2.08495,-3.524216 a 31.047261,34.159924 0 0 1 2.017693,-2.645474 c 0.638937,-0.776992 1.269465,-1.442986 2.017692,-2.229228 0.74823,-0.786242 1.614156,-1.711234 2.522119,-2.571476 a 26.591522,29.257471 0 0 1 2.707073,-2.386479 24.632676,27.10224 0 0 1 3.051757,-1.951729 32.072921,35.288412 0 0 1 3.29557,-1.535486 39.891486,43.890832 0 0 1 3.82521,-1.341237 22.959672,25.261508 0 0 1 3.85043,-0.739994 36.3353,39.978118 0 0 1 3.76636,-0.110988 18.545968,20.405305 0 0 1 3.20309,0.249743 34.468934,37.924638 0 0 1 3.90928,1.10074 c 0.64735,0.222002 1.32832,0.453244 2.00088,0.702992 a 16.301284,17.935579 0 0 1 1.55531,0.980491 22.043303,24.253268 0 0 1 2.96769,2.673225 29.979564,32.985184 0 0 1 2.76592,3.117221 33.350794,36.694399 0 0 1 3.36283,5.198449 26.255239,28.887475 0 0 1 2.52211,6.604437 66.609112,73.28705 0 0 1 1.58894,7.917923 19.336231,21.274797 0 0 1 0.39513,4.486207 12.526515,13.782369 0 0 1 -0.31106,2.432727 c -0.0841,0.453247 -0.0841,0.453247 0.0925,0.462495 a 5.1367119,5.6516962 0 0 1 1.95884,0.702995 50.896322,55.998965 0 0 1 5.80087,3.376216 24.086218,26.500996 0 0 1 4.52299,3.977464 12.467665,13.717619 0 0 1 2.09337,2.895221 z M 136.51537,65.947031 a 24.70834,27.185491 0 0 1 1.10132,3.440967 37.596358,41.365605 0 0 1 0.94159,4.347457 32.434426,35.68616 0 0 1 0.42876,4.513958 c 0.0588,1.368986 0,2.506725 0,3.487216 0,0.980491 -0.0421,1.794484 -0.0505,2.201479 -0.008,0.406996 0,0.406996 0.2354,0.517994 0.2354,0.110988 0.73142,0.351496 1.53849,0.776995 0.80708,0.425493 1.93363,1.045238 3.07699,1.701981 1.14336,0.656746 2.28673,1.350488 3.13584,1.849984 0.8491,0.499496 1.37874,0.924992 2.01768,1.405987 0.63895,0.480995 1.39557,1.045241 2.00089,1.516985 a 12.038906,13.245874 0 0 1 1.46281,1.322737 5.8849399,6.4749382 0 0 1 1.10133,1.544737 4.0185731,4.4214577 0 0 1 0.44558,1.849981 6.8937869,7.5849279 0 0 1 -0.15966,1.997981 3.5225568,3.8757129 0 0 1 -0.76506,1.76673 12.383595,13.62512 0 0 1 -2.11017,1.97948 c -0.92477,0.71225 -2.03448,1.47999 -3.02653,2.09973 a 29.315407,32.254441 0 0 1 -2.84158,1.60024 c -0.97522,0.49024 -2.06814,0.92499 -3.11061,1.38748 a 28.382223,31.227701 0 0 1 -3.31239,1.11924 c -1.29468,0.3515 -2.90043,0.6845 -4.15308,0.925 -1.25265,0.24048 -2.16061,0.40699 -3.49733,0.61049 -1.33673,0.20349 -3.13584,0.47175 -4.86769,0.67524 -1.73186,0.2035 -3.41327,0.3515 -5.56547,0.41625 -2.15221,0.0647 -4.77521,0.0647 -7.07034,0 -2.29513,-0.0647 -4.20353,-0.222 -6.24644,-0.43475 -2.04292,-0.21274 -4.02698,-0.48099 -5.62432,-0.77699 a 37.672022,41.448855 0 0 1 -4.430587,-1.01749 c -1.580528,-0.481 -3.539371,-1.16549 -5.203969,-1.84998 -1.664595,-0.6845 -3.043353,-1.24874 -4.279191,-1.84998 -1.235836,-0.60125 -2.320348,-1.22099 -3.362823,-1.84999 -1.042475,-0.62899 -2.0261,-1.10074 -2.580966,-1.41523 a 5.4225518,5.9661931 0 0 1 -0.723007,-0.444 c -0.05045,-0.0463 -0.05045,-0.0463 0,-0.81399 0.05045,-0.767742 0.100875,-2.312479 0.201773,-3.440967 a 19.25216,21.182298 0 0 1 0.40354,-2.691725 c 0.159736,-0.850992 0.353097,-1.849981 0.65575,-3.459467 0.302655,-1.609484 0.706192,-3.838714 1.151767,-5.771946 a 44.826427,49.320529 0 0 1 1.429199,-5.041202 c 0.496016,-1.479984 1.017255,-2.774972 1.572121,-4.208708 0.554866,-1.433738 1.151766,-2.895221 1.68141,-4.153211 0.529646,-1.257988 1.017255,-2.303226 1.538494,-3.329966 a 27.19683,29.923465 0 0 1 1.790701,-3.089473 37.369367,41.115857 0 0 1 2.522117,-3.348465 36.192381,39.820871 0 0 1 2.950876,-3.246721 c 1.008847,-0.971241 2.03451,-1.849981 2.984505,-2.562226 0.95,-0.712242 1.81592,-1.470734 2.67345,-2.081228 a 20.62251,22.690033 0 0 1 2.58096,-1.581735 25.380905,27.925484 0 0 1 2.83318,-1.211739 27.474263,30.228712 0 0 1 2.9845,-0.924992 c 1.00885,-0.249742 2.04292,-0.434746 3.03495,-0.591993 a 23.102593,25.418758 0 0 1 2.90884,-0.295997 19.479151,21.432045 0 0 1 2.90044,0.194262 16.133142,17.750581 0 0 1 2.57256,0.536494 11.601739,12.764878 0 0 1 1.81592,0.823241 18.672073,20.544054 0 0 1 2.0177,1.17474 30.315847,33.355181 0 0 1 3.03494,2.321728 15.3681,16.908838 0 0 1 2.03451,2.210728 c 0.65575,0.823244 1.46283,1.849983 2.07654,2.774973 a 17.730483,19.508064 0 0 1 1.57212,2.691725 c 0.52965,1.063741 1.16858,2.460478 1.63938,3.699965 z"
         id="path3349"
         style="fill:#5f9cd4;fill-rule:evenodd;stroke:#000000;stroke-width:0.194005px;stroke-miterlimit:22.93" />
      <path
         class="cls-29"
         d="m 120.09639,68.463006 c -0.5969,-0.582743 -1.53849,-1.396737 -2.0177,-1.960979 a 1.328315,1.461486 0 0 1 -0.47079,-1.146989 1.5721196,1.7297335 0 0 1 0.0841,-0.702995 c 0.0841,-0.231258 0.2438,-0.462495 0.28584,-0.647493 0.042,-0.185006 -0.0505,-0.286747 -0.2354,-0.194236 a 1.4291997,1.572485 0 0 0 -0.6053,0.758492 1.8747737,2.0627303 0 0 0 -0.0841,1.128491 1.6814114,1.8499823 0 0 0 0.40354,0.989738 9.3486474,10.285902 0 0 0 1.12655,1.15624 c 0.42035,0.397747 0.8407,0.767744 1.21061,1.19324 a 5.9353823,6.5304377 0 0 1 0.88274,1.341237 3.4637075,3.8109637 0 0 1 0.3531,1.294986 3.5057427,3.8572131 0 0 1 -0.0505,1.553984 3.0265405,3.3299682 0 0 1 -0.84071,1.470737 c -0.42876,0.453247 -0.98362,0.860242 -1.37875,1.239489 a 1.5973408,1.7574832 0 0 0 -0.64735,1.01749 0.94159039,1.0359901 0 0 0 0.30266,0.758491 c 0.15132,0.185007 0.27743,0.277499 0.36991,0.240514 0.0925,-0.037 0.14291,-0.185006 0.10928,-0.332998 -0.0336,-0.148011 -0.15973,-0.305247 -0.20177,-0.462498 a 0.46238812,0.50874513 0 0 1 0.15974,-0.508743 c 0.16814,-0.194262 0.44557,-0.397745 0.89114,-0.823244 a 8.9703297,9.8696557 0 0 0 1.41239,-1.609483 2.3791971,2.617725 0 0 0 0.48761,-1.553984 7.3477679,8.0844229 0 0 0 -0.0925,-1.720485 3.1022039,3.4132173 0 0 0 -0.37831,-1.193237 4.6154742,5.0782015 0 0 0 -1.0761,-1.285739 z"
         id="path3351"
         style="fill:#5f9cd4;fill-rule:evenodd;stroke-width:0.881843" />
      <path
         class="cls-29"
         d="m 111.48756,68.509258 a 5.5486576,6.1049418 0 0 1 0.3615,-1.452239 6.4986546,7.1501813 0 0 1 0.68097,-1.368986 7.0030782,7.7051762 0 0 0 0.77345,-1.433735 c 0.18495,-0.508746 0.25222,-1.082239 0.33629,-1.331987 0.0841,-0.249743 0.15973,-0.194262 0.21018,0.129499 a 2.9929122,3.2929685 0 0 1 -0.0925,1.461486 6.818123,7.5016782 0 0 1 -0.77345,1.498485 11.895986,13.088625 0 0 0 -0.73982,1.600233 3.1778676,3.4964667 0 0 0 -0.31947,1.146992 1.6814114,1.8499823 0 0 0 0.20177,0.924989 3.6738839,4.0422115 0 0 0 0.61372,0.786245 7.330954,8.0659234 0 0 1 0.89955,1.128488 c 0.17656,0.314495 0.0925,0.453244 0,0.443994 -0.0925,-0.0092 -0.28584,-0.166495 -0.50442,-0.406995 -0.21858,-0.240488 -0.46239,-0.545745 -0.76505,-0.924992 a 4.5902532,5.0504519 0 0 1 -0.79026,-1.063739 1.6814114,1.8499823 0 0 1 -0.0925,-1.156239 z"
         id="path3353"
         style="fill:#5f9cd4;fill-rule:evenodd;stroke-width:0.881843" />
      <path
         class="cls-29"
         d="m 115.51454,61.322075 c -0.18495,-0.305247 -0.41194,-0.749244 -0.5969,-1.128488 a 4.6743236,5.1429508 0 0 1 -0.37832,-1.017492 3.3628227,3.6999646 0 0 1 -0.0589,-1.02674 2.5221172,2.7749736 0 0 1 0.22699,-1.109988 4.438926,4.8839534 0 0 1 0.61371,-0.924992 1.6814114,1.8499823 0 0 0 0.34469,-0.628995 c 0,-0.129499 -0.10929,-0.157239 -0.27743,0 a 2.7743288,3.0524709 0 0 0 -0.60531,0.675244 4.6491025,5.1152012 0 0 0 -0.55486,1.01749 2.9088418,3.2004696 0 0 0 -0.24381,1.10999 3.2955662,3.6259653 0 0 0 0.0757,1.063739 3.0349476,3.3392182 0 0 0 0.29425,0.924991 6.9778576,7.6774271 0 0 0 0.58849,0.971241 9.1636922,10.082404 0 0 0 0.7146,0.924992 c 0.18495,0.185006 0.25221,0.194236 0.29425,0.129499 a 0.30265405,0.33299682 0 0 0 0,-0.332998 c -0.0757,-0.138755 -0.22699,-0.295997 -0.42035,-0.601244 z"
         id="path3355"
         style="fill:#5f9cd4;fill-rule:evenodd;stroke-width:0.881843" />
      <path
         class="cls-29"
         d="m 122.9716,67.16802 a 14.745978,16.224345 0 0 1 -1.30309,-1.479987 3.6150344,3.9774619 0 0 1 -0.68938,-1.322737 3.7327332,4.1069608 0 0 1 -0.14291,-1.489234 6.4482127,7.0946824 0 0 1 0.35309,-1.664985 5.330074,5.8644439 0 0 1 0.84071,-1.849984 c 0.47079,-0.675244 1.17699,-1.452236 1.49645,-1.849981 0.31947,-0.397748 0.2354,-0.453247 0.15974,-0.508746 -0.0757,-0.05551 -0.15132,-0.110988 -0.3531,0 a 6.3725495,7.0114335 0 0 0 -0.91637,1.02674 13.030938,14.337363 0 0 0 -1.21061,1.794484 5.6327282,6.197441 0 0 0 -0.67257,1.849981 6.2212222,6.8449347 0 0 0 -0.14291,1.849984 3.7747687,4.1532105 0 0 0 0.33628,1.646484 5.4141446,5.9569431 0 0 0 1.05089,1.544734 c 0.47079,0.508746 1.04247,1.054491 1.50486,1.507735 a 7.25529,7.9826737 0 0 1 1.01725,1.16549 1.2946867,1.4244864 0 0 1 0.26062,0.823244 0.63052928,0.69374339 0 0 1 -0.21019,0.536494 c -0.15132,0.194262 -0.40353,0.425496 -0.61371,0.647493 -0.21019,0.222002 -0.39513,0.434746 -0.38673,0.564243 0.008,0.129499 0.18495,0.17575 0.36151,0.120243 a 1.2526515,1.3782369 0 0 0 0.54646,-0.434738 4.5314036,4.9857023 0 0 0 0.57168,-0.786243 1.1097315,1.2209883 0 0 0 0.20177,-0.684494 1.6814114,1.8499823 0 0 0 -0.16815,-0.786242 3.4300792,3.773964 0 0 0 -0.56327,-0.924992 c -0.32788,-0.360746 -0.84071,-0.823241 -1.28628,-1.313486 z"
         id="path3357"
         style="fill:#5f9cd4;fill-rule:evenodd;stroke-width:0.881843" />
      <path
         class="cls-29"
         d="m 125.51053,77.148674 a 13.989342,15.391853 0 0 1 -0.10087,-2.099732 3.3628227,3.6999646 0 0 1 0.28584,-1.535484 3.8924673,4.2827091 0 0 1 1.01725,-1.609486 c 0.53805,-0.517993 1.32832,-0.924989 1.91681,-1.563234 a 5.1198978,5.6331963 0 0 0 1.23584,-2.081228 5.8849399,6.4749382 0 0 0 0.42876,-2.12748 4.6491025,5.1152012 0 0 0 -0.31106,-1.849984 11.206607,12.330132 0 0 0 -0.74823,-1.849981 c -0.21019,-0.379247 -0.31947,-0.314497 -0.38673,-0.194235 a 0.59690105,0.65674374 0 0 0 -0.0505,0.573493 c 0.0673,0.277499 0.25221,0.675244 0.42876,1.174739 a 8.9114803,9.8049064 0 0 1 0.43717,1.637235 3.3628227,3.6999646 0 0 1 0,1.452236 4.3464485,4.7822044 0 0 1 -0.50443,1.424487 5.2375964,5.7626949 0 0 1 -0.79866,1.230237 4.7920224,5.2724497 0 0 1 -0.84071,0.721495 c -0.3615,0.277496 -0.84071,0.712243 -1.26106,1.072989 a 4.2035285,4.6249559 0 0 0 -0.89955,1.082239 4.2960061,4.7267049 0 0 0 -0.49602,1.572485 8.3313936,9.1666627 0 0 0 -0.10088,2.229228 5.9942316,6.595187 0 0 0 0.39514,1.951732 c 0.17656,0.406995 0.35309,0.453244 0.45398,0.388495 0.10087,-0.06476 0.1177,-0.258998 0.0841,-0.480995 -0.0336,-0.222003 -0.1177,-0.480996 -0.19336,-1.054489 z"
         id="path3359"
         style="fill:#5f9cd4;fill-rule:evenodd;stroke-width:0.881843" />
      <path
         class="cls-29"
         d="m 130.02512,69.452747 a 3.5729992,3.9312125 0 0 0 0,1.387487 0.72300687,0.79549238 0 0 0 0.30266,0.545745 c 0.10928,0.07399 0.20177,0.07399 0.19336,0 -0.008,-0.07399 -0.10088,-0.314498 -0.14291,-0.656744 a 3.5141499,3.8664632 0 0 1 0.0841,-1.267237 6.7256457,7.3999295 0 0 1 0.53805,-1.516986 14.291997,15.72485 0 0 1 0.95841,-1.97948 7.1880333,7.9086741 0 0 1 1.05929,-1.350488 c 0.31947,-0.323747 0.55486,-0.564245 0.58008,-0.730743 0.0252,-0.166495 -0.16815,-0.249743 -0.38673,-0.175751 a 2.1690207,2.3864772 0 0 0 -0.79866,0.712243 16.51146,18.166827 0 0 0 -1.16859,1.563234 6.2548504,6.8819344 0 0 0 -0.8407,1.627984 7.4822804,8.2324211 0 0 0 -0.42035,1.849984 z"
         id="path3361"
         style="fill:#5f9cd4;fill-rule:evenodd;stroke-width:0.881843" />
      <path
         class="cls-29"
         d="m 133.48883,73.143462 a 5.8092762,6.3916888 0 0 0 -1.00044,1.331987 5.7336128,6.3084397 0 0 0 -0.70619,1.91473 16.461017,18.111327 0 0 0 -0.2354,1.923984 c -0.0588,0.462495 -0.12611,0.619742 -0.20178,0.554992 -0.0757,-0.06474 -0.17656,-0.351496 -0.17656,-0.924989 a 9.4411247,10.387651 0 0 1 0.19336,-2.016481 4.2455637,4.6712054 0 0 1 0.55487,-1.489237 11.534482,12.690879 0 0 1 1.01725,-1.507736 4.7920224,5.2724497 0 0 1 1.00044,-0.980491 c 0.25222,-0.157239 0.38673,-0.138754 0.43717,0 0.0504,0.138755 0,0.249743 -0.14291,0.453247 -0.14291,0.203491 -0.42035,0.416246 -0.73982,0.758494 z"
         id="path3363"
         style="fill:#5f9cd4;fill-rule:evenodd;stroke-width:0.881843" />
      <path
         class="cls-29"
         d="m 131.72335,82.957617 a 4.6995449,5.1707007 0 0 1 0.14291,-1.174739 4.001759,4.4029579 0 0 1 0.56327,-1.276486 c 0.30266,-0.517996 0.73983,-1.18399 1.11814,-1.711234 a 8.1632523,8.9816643 0 0 1 1.03407,-1.230239 5.8849399,6.4749382 0 0 1 0.92478,-0.730743 3.1274252,3.4409672 0 0 1 0.76504,-0.369997 1.9924725,2.1922291 0 0 0 0.63894,-0.212746 c 0.0925,-0.110988 0,-0.296 -0.27744,-0.332998 a 2.7491075,3.024721 0 0 0 -1.03406,0.194261 3.0769828,3.3854677 0 0 0 -0.97523,0.619745 11.181386,12.302382 0 0 0 -1.18539,1.304236 14.291997,15.72485 0 0 0 -1.21902,1.711234 7.0619275,7.7699255 0 0 0 -0.67257,1.396737 3.5982202,3.9589621 0 0 0 -0.27743,1.202488 6.2212222,6.8449347 0 0 0 0,1.433736 c 0,0.323747 0.14291,0.332998 0.22698,0.323747 0.0841,-0.0092 0.16815,-0.05551 0.21019,-0.249742 a 3.8672463,4.2549595 0 0 0 0.0673,-0.924992 z"
         id="path3365"
         style="fill:#5f9cd4;fill-rule:evenodd;stroke-width:0.881843" />
      <path
         class="cls-29"
         d="m 126.3008,82.781869 c 0.16814,-0.194261 0.44557,-0.453247 0.66415,-0.739993 a 6.2212222,6.8449347 0 0 0 0.4792,-0.786242 1.471235,1.6187346 0 0 0 0.22699,-0.564246 c 0.042,-0.231258 0.0505,-0.601244 0.0925,-0.795493 0.042,-0.194235 0.13452,-0.203491 0.19336,-0.06474 a 2.059729,2.2662284 0 0 1 0.1177,0.739993 1.7822961,1.9609813 0 0 1 -0.14291,0.92499 4.6995449,5.1707007 0 0 1 -0.60531,0.924991 6.3473282,6.9836836 0 0 1 -0.56328,0.730744 0.79026333,0.86949168 0 0 1 -0.47079,0.295996 0.23539759,0.25899752 0 0 1 -0.20177,-0.249742 c 0,-0.120244 0.042,-0.240487 0.21018,-0.434747 z"
         id="path3367"
         style="fill:#5f9cd4;fill-rule:evenodd;stroke-width:0.881843" />
      <path
         class="cls-29"
         d="m 107.61191,69.1475 c -0.50443,-0.758494 -1.3115,-1.99798 -1.83274,-2.922972 a 8.1884732,9.0094137 0 0 1 -0.95841,-2.19223 5.3132599,5.8459441 0 0 1 -0.32787,-1.98873 2.5725595,2.8304731 0 0 1 0.4708,-1.516986 3.253531,3.5797158 0 0 1 0.79866,-0.924991 c 0.21858,-0.166496 0.33629,-0.166496 0.30266,0 a 2.7238864,2.9969714 0 0 1 -0.38673,0.739993 3.4805216,3.8294635 0 0 0 -0.48761,0.980491 4.2035285,4.6249559 0 0 0 -0.15132,1.294989 2.648223,2.9137222 0 0 0 0.2354,1.331987 15.132703,16.649841 0 0 0 1.10132,2.173729 c 0.48761,0.860242 1.0761,1.849983 1.68141,2.774972 0.60531,0.924992 1.26947,1.905483 1.68142,2.608475 a 3.2367169,3.561216 0 0 1 0.51283,1.674233 4.4052978,4.8469537 0 0 1 -0.15974,1.535487 5.4814011,6.0309424 0 0 1 -0.66416,1.544736 8.8610377,9.7494066 0 0 1 -1.1938,1.794482 2.362383,2.5992252 0 0 1 -1.05929,0.684494 c -0.2438,0.08325 -0.32788,0.08325 -0.39513,0 a 0.1933623,0.21274796 0 0 1 0,-0.314498 c 0.10087,-0.110988 0.33628,-0.203491 0.58009,-0.388497 a 4.2035285,4.6249559 0 0 0 0.75663,-0.786242 6.473434,7.1224322 0 0 0 0.74823,-1.128488 7.3225465,8.0566731 0 0 0 0.58849,-1.396737 3.7663615,4.1439604 0 0 0 0.18495,-0.924992 2.9004346,3.1912195 0 0 0 0,-0.832491 4.0353873,4.4399576 0 0 0 -0.34469,-1.072992 10.534042,11.590139 0 0 0 -0.68097,-1.322734 c -0.2354,-0.388497 -0.45398,-0.647496 -0.9584,-1.396737 z"
         id="path3369"
         style="fill:#5f9cd4;fill-rule:evenodd;stroke-width:0.881843" />
      <path
         class="cls-29"
         d="m 104.73669,74.012952 a 10.929174,12.024885 0 0 0 -1.74866,-0.86024 c -0.72301,-0.305247 -1.56372,-0.619745 -2.10177,-0.924992 A 2.3960111,2.6362247 0 0 1 99.843786,71.302731 2.8079571,3.0894706 0 0 1 99.32255,70.072492 1.4460138,1.5909848 0 0 1 99.482286,69.1475 1.2610586,1.3874868 0 0 0 99.625198,68.537006 c 0,-0.129499 -0.168149,-0.185006 -0.311061,0 a 2.0765431,2.2847282 0 0 0 -0.395132,0.924992 1.7318537,1.9054818 0 0 0 0,0.989741 3.3628227,3.6999646 0 0 0 0.420352,0.924989 3.6402557,4.0052118 0 0 0 0.773453,1.02674 4.8424648,5.3279492 0 0 0 1.42079,0.860243 c 0.55487,0.231257 1.16018,0.369996 1.68141,0.554995 a 5.1114906,5.6239463 0 0 1 1.20221,0.591993 1.2022092,1.3227374 0 0 1 0.54646,0.684495 3.1106111,3.4224674 0 0 1 0.13452,1.091489 3.1442393,3.459467 0 0 1 -0.15973,1.313487 8.0455532,8.8521652 0 0 1 -0.55487,1.193237 c -0.14291,0.314498 -0.15973,0.480996 -0.042,0.554995 a 0.52964457,0.58274442 0 0 0 0.58849,-0.212746 3.0349476,3.3392182 0 0 0 0.53805,-1.09149 4.4305189,4.8747033 0 0 0 0.21858,-0.998991 4.5145895,4.9672025 0 0 0 0.0504,-1.119241 2.7322934,3.0062212 0 0 0 -0.25221,-1.02674 1.7907032,1.9702312 0 0 0 -0.7146,-0.850992 z"
         id="path3371"
         style="fill:#5f9cd4;fill-rule:evenodd;stroke-width:0.881843" />
      <path
         class="cls-29"
         d="M 98.666799,79.387152 C 97.91857,78.887656 96.91813,78.258661 96.077426,77.601918 a 14.771199,16.252095 0 0 1 -2.042915,-1.933231 5.4477729,5.9939428 0 0 1 -1.176989,-1.785232 3.3628227,3.6999646 0 0 1 -0.28584,-2.118232 2.5641524,2.8212231 0 0 1 0.723007,-1.405984 c 0.210186,-0.212747 0.252213,-0.110988 0.269026,0 a 0.38672463,0.42549595 0 0 1 -0.05045,0.314497 2.3960111,2.6362247 0 0 0 -0.277435,0.397745 2.6145947,2.8767226 0 0 0 -0.201773,0.924992 2.6818512,2.9507219 0 0 0 0.126111,1.220989 3.530964,3.884963 0 0 0 0.672565,1.202488 9.0964355,10.008404 0 0 0 1.042475,1.165489 c 0.378317,0.360747 0.781857,0.684492 1.134952,1.008239 a 10.676962,11.747388 0 0 0 1.143359,0.989742 c 0.504423,0.369997 1.219023,0.786242 2.051322,1.350485 a 17.284909,19.017818 0 0 1 2.396009,1.951732 6.6415753,7.3074306 0 0 1 1.37876,1.923981 2.9760981,3.2744687 0 0 1 0.15974,2.941473 4.3884837,4.8284539 0 0 1 -0.84071,1.322737 c -0.24381,0.268248 -0.3615,0.258998 -0.41194,0.157239 a 0.47079518,0.51799505 0 0 1 0,-0.471747 c 0.0925,-0.166495 0.26061,-0.305247 0.42035,-0.545745 a 2.9845053,3.2837187 0 0 0 0.36991,-0.924989 2.1185783,2.3309777 0 0 0 0.0841,-0.850992 4.7247659,5.1984503 0 0 0 -0.15132,-0.823244 3.2451238,3.5704658 0 0 0 -0.31947,-0.86949 4.447333,4.8932032 0 0 0 -0.76504,-1.04524 10.634927,11.701138 0 0 0 -1.23584,-1.109991 c -0.462387,-0.360746 -0.958403,-0.721492 -1.68141,-1.211738 z"
         id="path3373"
         style="fill:#5f9cd4;fill-rule:evenodd;stroke-width:0.881843" />
      <path
         class="cls-29"
         d="m 87.922581,79.313152 a 3.0349476,3.3392182 0 0 0 0.723007,0.860242 4.0269803,4.4307078 0 0 0 1.092917,0.601244 3.6570698,4.0237116 0 0 0 0.966811,0.212747 4.9685706,5.4666978 0 0 0 1.210616,0 c 0.479201,-0.08325 1.042475,-0.249743 1.572121,-0.379247 a 6.4482127,7.0946824 0 0 1 1.479641,-0.212747 3.4721144,3.8202134 0 0 1 1.244244,0.305247 2.9592839,3.2559688 0 0 1 0.94159,0.758495 9.1889135,10.110154 0 0 1 1.050882,1.387486 3.1442393,3.459467 0 0 1 0.554866,1.387486 3.2199028,3.5427162 0 0 1 -0.05045,1.415238 c -0.09249,0.369994 -0.252211,0.527244 -0.361502,0.471745 -0.109287,-0.05551 -0.168149,-0.305248 -0.193361,-0.573496 -0.02521,-0.268246 0,-0.545745 0,-0.86949 a 2.8331781,3.1172202 0 0 0 -0.260621,-1.119241 4.270785,4.6989553 0 0 0 -0.840704,-1.304238 3.3628227,3.6999646 0 0 0 -1.017255,-0.758492 4.3800767,4.8192041 0 0 0 -1.00044,-0.323745 3.6066274,3.9682121 0 0 0 -1.202209,0 c -0.496016,0.08325 -1.126546,0.268246 -1.563713,0.379244 a 4.1110507,4.5232067 0 0 1 -1.05928,0.148011 7.0535208,7.7606759 0 0 1 -1.311501,-0.111015 3.2703452,3.5982157 0 0 1 -1.042474,-0.462494 4.5986601,5.0597017 0 0 1 -0.958406,-0.804741 3.6234415,3.986712 0 0 1 -0.622123,-0.989741 0.65575047,0.72149314 0 0 1 -0.05045,-0.619745 c 0.05884,-0.157239 0.201773,-0.295996 0.302653,-0.286746 0.100875,0.0092 0.151324,0.185006 0.184949,0.342246 a 1.6814114,1.8499823 0 0 0 0.210185,0.564245 z"
         id="path3375"
         style="fill:#5f9cd4;fill-rule:evenodd;stroke-width:0.881843" />
      <path
         class="cls-29"
         d="m 99.658832,89.441805 c -0.420354,0 -0.882741,0 -1.336722,0 a 3.3123803,3.6444651 0 0 1 -1.219024,-0.212746 5.0442341,5.5499469 0 0 1 -0.65575,-0.536495 c -0.142912,-0.08325 -0.218574,0.06476 -0.184949,0.249743 a 1.1433597,1.257988 0 0 0 0.386725,0.573495 1.9588443,2.1552294 0 0 0 1.151766,0.406996 c 0.680973,0.07399 1.782297,0.07399 2.412832,0.06476 0.63052,-0.0092 0.77344,0 0.79026,-0.120243 0.0169,-0.120244 -0.0925,-0.277499 -0.32788,-0.351499 a 4.573439,5.0319521 0 0 0 -1.017251,0 z"
         id="path3377"
         style="fill:#5f9cd4;fill-rule:evenodd;stroke-width:0.881843" />
      <path
         class="cls-29"
         d="m 90.074788,95.629996 c 0.260618,-0.0925 0.781856,-0.14801 1.210613,-0.258998 a 3.5057427,3.8572131 0 0 0 1.328318,-0.702992 19.664106,21.635543 0 0 0 1.748667,-1.590986 8.5836055,9.4441603 0 0 1 1.00044,-0.980491 c 0.193361,-0.101758 0.269026,0.0925 0.151324,0.379247 a 4.573439,5.0319521 0 0 1 -1.008847,1.23949 23.724715,26.103251 0 0 1 -1.967251,1.775983 2.8415853,3.1264702 0 0 1 -1.303093,0.638243 4.6238812,5.0874513 0 0 1 -1.092917,0.05551 c -0.243805,0 -0.294247,-0.101759 -0.31947,-0.212747 -0.02521,-0.110988 0,-0.249742 0.252213,-0.342245 z"
         id="path3379"
         style="fill:#5f9cd4;fill-rule:evenodd;stroke-width:0.881843" />
      <path
         class="cls-29"
         d="m 87.552671,93.437767 a 4.9937917,5.4944474 0 0 0 0.748227,0.231257 1.9084019,2.0997299 0 0 0 0.958406,-0.185006 2.8499923,3.13572 0 0 0 0.840704,-0.712242 c 0.28584,-0.323745 0.638937,-0.749241 1.076104,-1.285739 0.437167,-0.536494 0.941588,-1.174737 1.252651,-1.479984 0.31106,-0.305247 0.420352,-0.258998 0.428759,-0.120243 0.0083,0.138754 -0.06725,0.369996 -0.403539,0.924991 a 20.899943,22.99528 0 0 1 -1.471234,1.97023 7.1375914,7.8531751 0 0 1 -1.39557,1.341238 2.1101713,2.3217278 0 0 1 -1.00044,0.397745 1.4964561,1.6464843 0 0 1 -0.781857,-0.110988 1.2946867,1.4244864 0 0 1 -0.529644,-0.443994 0.30265405,0.33299682 0 0 1 0,-0.388498 0.31106111,0.34224674 0 0 1 0.361503,-0.110988 z"
         id="path3381"
         style="fill:#5f9cd4;fill-rule:evenodd;stroke-width:0.881843" />
      <path
         class="cls-29"
         d="m 89.074348,102.36393 c 0.369909,-0.0555 1.076104,-0.0832 1.630968,-0.14801 a 3.9092814,4.3012089 0 0 0 1.361942,-0.37925 5.7083917,6.2806901 0 0 0 1.34513,-1.00824 13.350406,14.68886 0 0 0 1.244244,-1.378234 2.5641524,2.8212231 0 0 1 0.840706,-0.841741 3.4216723,3.7647142 0 0 1 1.513271,-0.286747 9.6513011,10.618898 0 0 1 1.68141,0.323745 2.6902582,2.9599717 0 0 1 0.840707,0.28675 c 0.100874,0.101758 0,0.231257 -0.100875,0.286746 a 1.3535362,1.4892358 0 0 1 -0.63054,-0.07399 c -0.344687,-0.07399 -0.882741,-0.212747 -1.3115,-0.268246 a 3.2283097,3.5519659 0 0 0 -1.067697,0 2.6061876,2.8674725 0 0 0 -0.840704,0.369997 3.4384864,3.783214 0 0 0 -0.840707,0.80474 c -0.327875,0.40699 -0.739822,0.99899 -1.160174,1.43374 a 4.0185731,4.4214577 0 0 1 -1.353537,0.92499 6.7256457,7.3999295 0 0 1 -1.488047,0.40699 8.4070568,9.2499116 0 0 1 -1.168581,0.0555 6.4902479,7.1409318 0 0 1 -0.840706,0 c -0.159736,0 -0.159736,-0.12024 -0.142912,-0.20349 0.01692,-0.0833 0.05884,-0.19426 0.428759,-0.259 z"
         id="path3383"
         style="fill:#5f9cd4;fill-rule:evenodd;stroke-width:0.881843" />
      <path
         class="cls-29"
         d="m 108.85615,103.61267 c -0.46239,0 -1.21061,0.11099 -1.68141,0.13876 a 4.9937917,5.4944474 0 0 1 -0.96681,0 3.6066274,3.9682121 0 0 1 -0.84071,-0.17575 c -0.25221,-0.0925 -0.43716,-0.22201 -0.56327,-0.24049 -0.12611,-0.0186 -0.19336,0.074 -0.14291,0.20349 0.0504,0.1295 0.21018,0.296 0.51283,0.41625 a 7.4234311,8.1676718 0 0 0 1.14336,0.24974 7.25529,7.9826737 0 0 0 2.52211,0 8.4070568,9.2499116 0 0 0 1.38717,-0.30525 12.265896,13.495621 0 0 0 1.35353,-0.59199 c 0.37832,-0.18501 0.63053,-0.32375 0.89956,-0.47175 a 5.5066222,6.0586921 0 0 1 0.84071,-0.36075 c 0.27743,-0.0832 0.55486,-0.10176 0.73982,-0.185 0.18495,-0.0832 0.28584,-0.23126 0.2354,-0.3145 -0.0504,-0.0833 -0.26062,-0.10176 -0.4708,-0.11099 a 1.916809,2.1089798 0 0 0 -0.723,0.0925 9.7858144,10.766897 0 0 0 -1.02566,0.50875 c -0.39514,0.21275 -0.84071,0.42549 -1.23584,0.61049 a 9.2477628,10.174903 0 0 1 -1.04248,0.39775 5.0442341,5.5499469 0 0 1 -0.89955,0.11099 z"
         id="path3385"
         style="fill:#5f9cd4;fill-rule:evenodd;stroke-width:0.881843" />
      <path
         class="cls-29"
         d="m 102.29024,103.31667 a 4.2960061,4.7267049 0 0 1 0.44557,-1.45223 3.9849449,4.3844581 0 0 1 1.17699,-1.36899 5.8849399,6.4749382 0 0 1 1.86637,-0.924992 10.99643,12.098885 0 0 1 2.05132,-0.277496 c 0.60531,0 1.04248,-0.05551 1.44601,-0.101759 a 3.4300792,3.773964 0 0 1 0.98363,0 c 0.21019,0.07399 0.27743,0.28675 0.21019,0.379247 -0.0673,0.0925 -0.25222,0.08325 -0.53806,0.101759 -0.28583,0.01862 -0.65575,0 -1.15176,0.08325 -0.49602,0.08325 -1.09292,0.08325 -1.61416,0.14801 a 8.2052878,9.0279141 0 0 0 -1.34513,0.268241 5.4225518,5.9661931 0 0 0 -1.16017,0.47175 3.1106111,3.4224674 0 0 0 -0.92478,0.79549 4.6827307,5.1522009 0 0 0 -0.75663,1.23024 3.4300792,3.773964 0 0 0 -0.29425,1.19324 7.6672355,8.435919 0 0 1 -0.10087,1.04524 c -0.0673,0.24974 -0.18495,0.34225 -0.27744,0.26825 a 0.73982098,0.81399219 0 0 1 -0.15973,-0.61975 5.6831704,6.2529402 0 0 1 0.14291,-1.17474 z"
         id="path3387"
         style="fill:#5f9cd4;fill-rule:evenodd;stroke-width:0.881843" />
      <path
         class="cls-29"
         d="m 112.71499,106.38764 c 0.42876,-0.32374 1.11814,-0.82324 1.68141,-1.26723 a 4.3128202,4.7452047 0 0 0 1.13496,-1.22099 2.3876042,2.6269749 0 0 0 0.28584,-1.33199 12.677842,13.948867 0 0 1 0.10087,-1.59098 c 0.0757,-0.34225 0.21857,-0.333 0.29425,-0.19427 a 1.5468984,1.7019837 0 0 1 0.11769,0.7215 c 0,0.32374 0,0.70299 0,1.10074 a 3.4132651,3.7554641 0 0 1 -0.0925,1.19324 2.6650371,2.9322221 0 0 1 -0.67257,1.13774 8.1548452,8.9724143 0 0 1 -1.26946,1.11923 c -0.51283,0.3885 -1.12655,0.814 -1.51327,1.05449 -0.38673,0.24049 -0.55487,0.2775 -0.65575,0.23126 -0.10088,-0.0463 -0.1177,-0.19426 -0.0504,-0.34224 0.0673,-0.14801 0.21857,-0.28675 0.63893,-0.6105 z"
         id="path3389"
         style="fill:#5f9cd4;fill-rule:evenodd;stroke-width:0.881843" />
      <path
         class="cls-29"
         d="m 121.45833,100.53245 c -0.44558,0.28675 -1.10973,0.68449 -1.68141,1.13774 a 8.7769673,9.6569077 0 0 0 -1.53008,1.44299 2.6398158,2.9044722 0 0 0 -0.65576,1.36898 2.3035336,2.5344758 0 0 0 0.79867,2.56223 c 0.21858,0.19426 0.33629,0.19426 0.38673,0.12024 a 0.26902582,0.29599717 0 0 0 0,-0.3145 c -0.0505,-0.10176 -0.14291,-0.15724 -0.26903,-0.33299 a 2.7238864,2.9969714 0 0 1 -0.39513,-0.703 1.1938021,1.3134875 0 0 1 -0.0757,-0.60124 2.1269854,2.3402276 0 0 1 0.0673,-0.68449 2.3371618,2.5714755 0 0 1 0.44557,-0.92499 6.2296291,6.8541845 0 0 1 1.00885,-1.0545 15.973408,17.574832 0 0 1 1.37876,-1.03599 c 0.4792,-0.32374 0.96681,-0.62899 1.41238,-0.92498 a 4.136272,4.5509566 0 0 0 1.05089,-0.850997 0.62212222,0.68449347 0 0 0 0,-0.813993 3.0517618,3.3577181 0 0 0 -0.63894,-0.804743 2.1522065,2.3679774 0 0 0 -0.61372,-0.453244 0.32787521,0.36074655 0 0 0 -0.33628,0 c -0.0588,0.06474 -0.0588,0.157239 0,0.268246 a 3.3628227,3.6999646 0 0 0 0.37832,0.388497 c 0.16815,0.15724 0.3531,0.351496 0.48761,0.490246 0.13452,0.138754 0.21857,0.212746 0.25221,0.323745 a 0.32787521,0.36074655 0 0 1 -0.0841,0.360746 2.1353924,2.3494775 0 0 1 -0.48761,0.406998 c -0.20178,0.138759 -0.44558,0.305249 -0.89956,0.591989 z"
         id="path3391"
         style="fill:#5f9cd4;fill-rule:evenodd;stroke-width:0.881843" />
      <path
         class="cls-29"
         d="m 129.13397,104.53766 a 10.550856,11.608639 0 0 1 -0.60531,-1.08224 c -0.22698,-0.43474 -0.49601,-0.92499 -0.73141,-1.35973 a 3.833618,4.2179598 0 0 0 -0.66416,-0.9805 1.5889337,1.7482333 0 0 0 -0.7146,-0.42549 0.60530809,0.66599363 0 0 0 -0.48761,0 0.20176936,0.22199788 0 0 0 0,0.31449 0.61371515,0.67524355 0 0 0 0.31947,0.23126 1.2694656,1.3967366 0 0 1 0.37832,0.17575 2.8499923,3.13572 0 0 1 0.49602,0.6105 c 0.17653,0.27749 0.3615,0.61974 0.58849,1.03599 0.22699,0.41624 0.49602,0.92499 0.68097,1.27648 a 3.3628227,3.6999646 0 0 0 0.51283,0.8325 2.7491075,3.024721 0 0 0 0.84071,0.63824 1.5637126,1.7204835 0 0 0 0.75664,0.15724 c 0.17653,0 0.26061,-0.074 0.29424,-0.19426 a 0.30265405,0.33299682 0 0 0 -0.10087,-0.36075 1.2778726,1.4059865 0 0 0 -0.51284,-0.1295 1.0845103,1.1932386 0 0 1 -0.49601,-0.15724 2.2699054,2.4974762 0 0 1 -0.53805,-0.61049 z"
         id="path3393"
         style="fill:#5f9cd4;fill-rule:evenodd;stroke-width:0.881843" />
      <path
         class="cls-29"
         d="m 136.322,103.99192 a 4.3800767,4.8192041 0 0 1 -0.79866,-0.92499 2.9760981,3.2744687 0 0 1 -0.36151,-1.22099 3.530964,3.884963 0 0 0 -0.53805,-1.57249 3.6570698,4.0237116 0 0 0 -1.53008,-1.202488 8.1548452,8.9724143 0 0 0 -2.0177,-0.545744 c -0.76504,-0.120244 -1.68141,-0.212747 -2.2615,-0.323745 a 4.0101662,4.4122079 0 0 1 -1.27787,-0.397748 6.3136995,6.9466834 0 0 0 -0.72301,-0.453244 c -0.15973,0 -0.23539,0.101758 -0.21018,0.249742 0.0252,0.148011 0.17656,0.314495 0.45398,0.517994 a 4.8172435,5.3001993 0 0 0 1.16017,0.601244 7.4654665,8.2139215 0 0 0 1.37876,0.222002 c 0.4708,0 0.95841,0.0925 1.49646,0.175751 a 9.5336025,10.4894 0 0 1 1.5553,0.360746 2.2530912,2.4789763 0 0 1 0.96682,0.63824 3.6402557,4.0052118 0 0 1 0.723,1.06374 4.6238812,5.0874513 0 0 1 0.30266,1.12849 3.6318485,3.9959618 0 0 0 0.26062,0.8695 2.5221172,2.7749736 0 0 0 0.50442,0.82324 4.1110507,4.5232067 0 0 0 0.8407,0.68449 6.6667959,7.3351797 0 0 0 1.0593,0.56425 c 0.28583,0.0925 0.42875,0 0.43716,-0.0555 0.008,-0.0555 -0.10088,-0.259 -0.27744,-0.39775 a 5.7588341,6.3361896 0 0 0 -0.59689,-0.34224 3.1862745,3.5057165 0 0 1 -0.57169,-0.444 z"
         id="path3395"
         style="fill:#5f9cd4;fill-rule:evenodd;stroke-width:0.881843" />
      <path
         class="cls-29"
         d="m 134.23705,96.120242 a 6.7256457,7.3999295 0 0 1 -1.28628,-0.462495 5.6159141,6.1789411 0 0 1 -1.37034,-0.971241 8.9451083,9.8419058 0 0 1 -0.84071,-1.054491 c -0.20177,-0.249742 -0.36991,-0.323747 -0.44557,-0.277496 -0.0757,0.04625 -0.0757,0.222002 0,0.527244 a 3.6738839,4.0422115 0 0 0 0.61371,1.137739 3.7579546,4.1347107 0 0 0 1.3031,1.054491 7.129184,7.8439248 0 0 0 1.82433,0.591993 7.7428994,8.5191687 0 0 0 1.44601,0.15724 c 0.31106,0 0.40354,-0.08325 0.34469,-0.166495 a 1.185395,1.3042376 0 0 0 -0.55487,-0.286747 c -0.30265,-0.08325 -0.68938,-0.157239 -1.08451,-0.249742 z"
         id="path3397"
         style="fill:#5f9cd4;fill-rule:evenodd;stroke-width:0.881843" />
      <path
         class="cls-29"
         d="m 140.13881,97.720477 a 2.8752136,3.1634699 0 0 1 1.09292,-0.203491 7.3393607,8.0751729 0 0 1 1.7907,0.268249 4.0437944,4.4492076 0 0 1 1.28628,0.647493 c 0.36991,0.286746 0.75665,0.638242 1.00885,0.795492 0.25222,0.15724 0.36151,0.120244 0.41195,0 0.0505,-0.120243 0.0422,-0.203491 -0.11772,-0.397747 a 3.9765379,4.3752083 0 0 0 -0.78187,-0.702992 6.2884787,6.918934 0 0 0 -1.10973,-0.656744 6.0362668,6.6414365 0 0 0 -1.33672,-0.443996 5.3132599,5.8459441 0 0 0 -1.34513,-0.08325 3.8924673,4.2827091 0 0 0 -0.96681,0.231258 1.4544209,1.6002347 0 0 0 -0.48761,0.286746 0.16814114,0.18499823 0 0 0 -0.0421,0.249743 0.29424698,0.3237469 0 0 0 0.22698,0.120244 c 0.0841,0 0.15974,-0.06474 0.36991,-0.15724 z"
         id="path3399"
         style="fill:#5f9cd4;fill-rule:evenodd;stroke-width:0.881843" />
      <path
         class="cls-29"
         d="m 141.42509,94.279508 c -0.45398,-0.231257 -0.9584,-0.480995 -1.44601,-0.767741 -0.48761,-0.286747 -0.93319,-0.638243 -1.47124,-0.980492 a 17.999509,19.804061 0 0 0 -1.68141,-0.924991 4.5986601,5.0597017 0 0 0 -1.41238,-0.434744 3.1862745,3.5057165 0 0 0 -1.43761,0.175751 1.8747737,2.0627303 0 0 0 -0.91637,0.795492 0.70619275,0.77699255 0 0 0 -0.0841,0.684492 c 0.0505,0.138755 0.13453,0.14801 0.19337,0.120244 0.0588,-0.02774 0.0925,-0.0925 0.12611,-0.194236 a 0.90796216,0.99899048 0 0 1 0.17656,-0.406998 1.6814114,1.8499823 0 0 1 0.52964,-0.406995 2.4044183,2.6454748 0 0 1 0.67256,-0.277497 1.8663666,2.0534804 0 0 1 0.89115,0.0925 9.4243106,10.369151 0 0 1 1.63097,0.684494 c 0.60531,0.323748 1.1938,0.721493 1.79911,1.119238 0.60531,0.397747 1.21902,0.786242 1.9084,1.146988 a 16.074293,17.685831 0 0 0 2.09336,0.924992 9.2477628,10.174903 0 0 0 1.72345,0.434746 7.5159091,8.2694213 0 0 0 1.49647,0 3.9849449,4.3844581 0 0 0 1.1013,-0.268248 0.98362563,1.0822396 0 0 0 0.48762,-0.379244 c 0.0422,-0.101759 0,-0.15724 -0.14298,-0.166496 a 1.336722,1.4707359 0 0 0 -0.44559,0.0925 3.4132651,3.7554641 0 0 1 -0.73982,0.194261 6.2296291,6.8541845 0 0 1 -1.10974,0 12.434037,13.680619 0 0 1 -1.29467,-0.185006 8.6088261,9.4719094 0 0 1 -1.34513,-0.397748 c -0.42876,-0.17575 -0.8407,-0.406995 -1.27787,-0.647493 z"
         id="path3401"
         style="fill:#5f9cd4;fill-rule:evenodd;stroke-width:0.881843" />
      <path
         class="cls-29"
         d="m 140.7273,90.468545 a 10.42475,11.46989 0 0 1 -1.84114,-0.203491 15.132703,16.649841 0 0 1 -2.10177,-0.80474 c -0.8407,-0.342249 -1.81592,-0.730743 -2.52212,-1.035991 -0.70619,-0.305247 -1.15176,-0.545744 -1.4376,-0.619744 -0.28584,-0.07399 -0.40353,0 -0.38672,0.14801 0.0169,0.14801 0.17656,0.258998 0.93318,0.638243 0.75664,0.379247 2.1354,0.998991 3.0938,1.387486 a 13.745538,15.123606 0 0 0 1.95043,0.665994 9.6260803,10.591149 0 0 0 1.29469,0.249742 c 0.50442,0.05551 1.16858,0.110988 1.7907,0.138755 a 13.451291,14.799859 0 0 0 1.68142,-0.04625 7.6252003,8.3896696 0 0 0 1.3199,-0.277496 9.3906826,10.332151 0 0 0 1.31991,-0.462497 c 0.36151,-0.175751 0.55487,-0.360746 0.52966,-0.480995 -0.0253,-0.120244 -0.26064,-0.185007 -0.53805,-0.138755 a 7.3477679,8.0844229 0 0 0 -0.94161,0.351496 8.1716591,8.9909139 0 0 1 -2.57256,0.508744 c -0.48761,0 -1.00044,0 -1.57212,0 z"
         id="path3403"
         style="fill:#5f9cd4;fill-rule:evenodd;stroke-width:0.881843" />
      <path
         class="cls-29"
         d="m 138.59192,87.665824 a 5.9690105,6.5674374 0 0 1 -0.97523,-0.120244 c -0.33628,-0.08325 -0.64734,-0.240487 -0.8407,-0.277496 -0.19336,-0.037 -0.2354,0 -0.20177,0.15724 0.0336,0.157239 0.15973,0.268248 0.4876,0.416248 a 5.161933,5.6794458 0 0 0 2.85,0.258998 c 0.31947,-0.0925 0.37831,-0.222002 0.2438,-0.295997 a 2.3876042,2.6269749 0 0 0 -0.74823,-0.110988 h -0.8407 z"
         id="path3405"
         style="fill:#5f9cd4;fill-rule:evenodd;stroke-width:0.881843" />
      <path
         class="cls-30"
         d="m 142.71978,115.73931 a 2.1774277,2.3957271 0 0 0 -0.3615,-1.09149 0.73982098,0.81399219 0 0 0 -0.66416,-0.407 1.2862797,1.4152365 0 0 0 -0.79867,0.47175 1.4039785,1.5447353 0 0 0 -0.38673,0.98048 0.92477628,1.0174903 0 0 0 0.42876,0.74924 1.8915878,2.0812301 0 0 0 0.84071,0.45325 0.84070568,0.92499116 0 0 0 0.70619,-0.296 1.034068,1.1377391 0 0 0 0.24381,-0.86023 z"
         id="path3407"
         style="fill:#3679bd;fill-rule:evenodd;stroke:#000000;stroke-width:0.194005px;stroke-miterlimit:22.93" />
      <path
         class="cls-31"
         d="m 150.43746,111.81734 a 4.0606086,4.4677074 0 0 1 -0.45398,1.54474 3.530964,3.884963 0 0 1 -1.02566,1.10999 c -0.34469,0.27749 -0.63895,0.46249 -0.89956,0.34224 a 1.3535362,1.4892358 0 0 1 -0.5885,-0.92499 1.471235,1.6187346 0 0 1 0.15133,-1.11924 6.0362668,6.6414365 0 0 1 0.72299,-1.25799 2.3791971,2.617725 0 0 1 0.84072,-0.78624 0.95840451,1.05449 0 0 1 0.723,-0.0555 0.84070568,0.92499116 0 0 1 0.47921,0.37 1.0256609,1.1284892 0 0 1 0.0758,0.80474 z"
         id="path3409"
         style="fill:#78d0e9;fill-rule:evenodd;stroke:#000000;stroke-width:0.194005px;stroke-miterlimit:22.93" />
      <path
         class="cls-30"
         d="m 134.92644,120.26251 a 0.66415753,0.73074306 0 0 0 -0.3531,0.518 0.77344923,0.85099187 0 0 0 0.25221,0.79549 0.58849399,0.64749382 0 0 0 0.7062,0 0.72300687,0.79549238 0 0 0 0.0925,-0.7585 0.96681157,1.0637399 0 0 0 -0.31107,-0.55499 0.32787521,0.36074655 0 0 0 -0.38672,0 z"
         id="path3411"
         style="fill:#3679bd;fill-rule:evenodd;stroke:#000000;stroke-width:0.194005px;stroke-miterlimit:22.93" />
      <path
         class="cls-30"
         d="m 127.89814,119.18952 a 1.3451291,1.4799859 0 0 0 -0.84071,0.52725 0.60530809,0.66599363 0 0 0 0.21857,0.82324 1.042475,1.146989 0 0 0 0.91637,0.12025 1.0004398,1.1007395 0 0 0 0.64735,-0.65674 0.62212222,0.68449347 0 0 0 -0.2354,-0.69375 0.78185629,0.86024178 0 0 0 -0.7062,-0.12024 z"
         id="path3413"
         style="fill:#3679bd;fill-rule:evenodd;stroke:#000000;stroke-width:0.194005px;stroke-miterlimit:22.93" />
      <path
         class="cls-30"
         d="m 110.20128,115.06406 a 0.84070568,0.92499116 0 0 0 -0.2438,0.71224 1.0929174,1.2024885 0 0 0 0.29424,0.86949 1.3115009,1.4429862 0 0 0 0.88275,0.407 0.50442341,0.55499469 0 0 0 0.45397,-0.54574 1.4039785,1.5447353 0 0 0 -0.23539,-0.92499 1.1433597,1.257988 0 0 0 -0.53806,-0.5365 0.63893634,0.70299331 0 0 0 -0.61371,0 z"
         id="path3415"
         style="fill:#3679bd;fill-rule:evenodd;stroke:#000000;stroke-width:0.194005px;stroke-miterlimit:22.93" />
      <path
         class="cls-30"
         d="m 90.873457,114.55532 a 1.5468984,1.7019837 0 0 0 0.504424,0.73999 0.84070568,0.92499116 0 0 0 0.773449,0.0832 0.5464587,0.60124426 0 0 0 0.201773,-0.66599 1.3871644,1.5262354 0 0 0 -0.496016,-0.814 0.8995551,0.98974056 0 0 0 -0.706192,-0.185 0.47079518,0.51799505 0 0 0 -0.319468,0.36999 0.59690105,0.65674374 0 0 0 0.05886,0.50875 z"
         id="path3417"
         style="fill:#3679bd;fill-rule:evenodd;stroke:#000000;stroke-width:0.194005px;stroke-miterlimit:22.93" />
      <path
         class="cls-31"
         d="m 80.070389,109.81936 a 2.8836205,3.1727197 0 0 0 -0.05884,1.23949 2.211056,2.4327268 0 0 0 0.512832,1.23024 5.2544105,5.7811948 0 0 0 1.151766,1.10999 1.8075173,1.988731 0 0 0 1.134954,0.38849 1.6814114,1.8499823 0 0 0 1.168582,-0.56424 1.622562,1.7852329 0 0 0 0.235398,-1.44299 3.5814061,3.9404622 0 0 0 -1.773887,-2.71947 1.8663666,2.0534804 0 0 0 -1.101325,-0.2775 1.7991102,1.9794811 0 0 0 -0.840706,0.37925 0.92477628,1.0174903 0 0 0 -0.420352,0.65674 z"
         id="path3419"
         style="fill:#78d0e9;fill-rule:evenodd;stroke:#000000;stroke-width:0.194005px;stroke-miterlimit:22.93" />
      <path
         class="cls-30"
         d="m 71.520412,95.3525 a 1.3451291,1.4799859 0 0 0 -0.319468,0.610494 1.0676962,1.1747388 0 0 0 0.07566,0.79549 0.89114803,0.98049064 0 0 0 0.512832,0.490246 0.63893634,0.70299331 0 0 0 0.65575,-0.14801 0.99203269,1.0914896 0 0 0 -0.126112,-1.526236 1.3535362,1.4892358 0 0 0 -0.512831,-0.332996 c -0.134523,0 -0.184949,0 -0.28584,0.110988 z"
         id="path3421"
         style="fill:#3679bd;fill-rule:evenodd;stroke:#000000;stroke-width:0.194005px;stroke-miterlimit:22.93" />
      <path
         class="cls-30"
         d="m 75.816418,90.736794 a 0.69778576,0.76774271 0 0 0 -0.168149,0.804743 1.3030938,1.4337363 0 0 0 0.563274,0.721493 0.84070568,0.92499116 0 0 0 0.723007,0.120243 0.77344923,0.85099187 0 0 0 0.462389,-0.517996 0.84070568,0.92499116 0 0 0 -0.100875,-0.749244 1.1433597,1.257988 0 0 0 -0.680972,-0.536495 0.8995551,0.98974056 0 0 0 -0.798672,0.15724 z"
         id="path3423"
         style="fill:#3679bd;fill-rule:evenodd;stroke:#000000;stroke-width:0.194005px;stroke-miterlimit:22.93" />
      <path
         class="cls-30"
         d="m 75.24474,83.031617 a 2.1774277,2.3957271 0 0 0 -0.840707,0.693742 0.94159039,1.0359901 0 0 0 -0.05045,1.045241 1.1013245,1.2117384 0 0 0 0.731415,0.591994 0.98362563,1.0822396 0 0 0 0.840706,-0.249743 1.2526515,1.3782369 0 0 0 0.36991,-0.924992 1.622562,1.7852329 0 0 0 -0.151324,-0.924992 0.63052928,0.69374339 0 0 0 -0.437167,-0.323748 c -0.134524,0 -0.218574,0 -0.453982,0.101759 z"
         id="path3425"
         style="fill:#3679bd;fill-rule:evenodd;stroke:#000000;stroke-width:0.194005px;stroke-miterlimit:22.93" />
      <path
         class="cls-31"
         d="m 75.034564,74.937944 a 12.803947,14.087615 0 0 0 -1.681413,2.599224 3.1274252,3.4409672 0 0 0 -0.496016,1.933234 0.77344923,0.85099187 0 0 0 0.57168,0.823241 1.5468984,1.7019837 0 0 0 1.286279,-0.406995 5.2375964,5.7626949 0 0 0 1.336722,-1.849984 4.3380413,4.7729543 0 0 0 0.496016,-2.12748 1.6814114,1.8499823 0 0 0 -0.445574,-1.350485 c -0.243803,-0.222002 -0.538051,-0.185006 -1.059289,0.397745 z"
         id="path3427"
         style="fill:#78d0e9;fill-rule:evenodd;stroke:#000000;stroke-width:0.194005px;stroke-miterlimit:22.93" />
      <path
         class="cls-30"
         d="m 81.734987,74.595698 a 0.62212222,0.68449347 0 0 0 -0.630531,0.138754 0.8995551,0.98974056 0 0 0 -0.302652,0.767742 c 0,0.231258 0.235398,0.332996 0.470794,0.351496 a 0.99203269,1.0914896 0 0 0 0.647345,-0.222002 0.5464587,0.60124426 0 0 0 0.176537,-0.582746 0.57167986,0.62899399 0 0 0 -0.361505,-0.453244 z"
         id="path3429"
         style="fill:#3679bd;fill-rule:evenodd;stroke:#000000;stroke-width:0.194005px;stroke-miterlimit:22.93" />
      <path
         class="cls-30"
         d="m 83.164186,61.988069 a 1.3619432,1.4984857 0 0 0 -0.748227,0 0.84070568,0.92499116 0 0 0 -0.622123,0.499495 1.0004398,1.1007395 0 0 0 0.04204,0.924992 0.53805164,0.59199434 0 0 0 0.613716,0.369994 1.6814114,1.8499823 0 0 0 0.840706,-0.638242 0.69778576,0.76774271 0 0 0 0.168149,-0.675244 0.42035285,0.46249559 0 0 0 -0.285841,-0.397745 z"
         id="path3431"
         style="fill:#3679bd;fill-rule:evenodd;stroke:#000000;stroke-width:0.194005px;stroke-miterlimit:22.93" />
      <path
         class="cls-31"
         d="m 87.376123,59.555342 a 6.3893634,7.0299331 0 0 0 -1.109732,1.775983 2.353976,2.5899753 0 0 0 -0.210186,1.618734 c 0.100875,0.369997 0.36991,0.508746 0.77345,0.434746 a 2.8079571,3.0894706 0 0 0 1.429199,-0.823241 4.7583942,5.23545 0 0 0 1.08451,-1.738985 1.9924725,2.1922291 0 0 0 0.159736,-1.285738 1.0592891,1.1654888 0 0 0 -0.336283,-0.776992 0.84070568,0.92499116 0 0 0 -0.756634,0 2.6314089,2.8952224 0 0 0 -1.034067,0.823244 z"
         id="path3433"
         style="fill:#78d0e9;fill-rule:evenodd;stroke:#000000;stroke-width:0.194005px;stroke-miterlimit:22.93" />
    </g>
  </g>
</svg>
